Raleway-Bold-Italic-TTF.ufo
<glyph name="exclam" format="1">
  <advance width="290"/>
  <unicode hex="0021"/>
  <outline>
    <contour>
      <point x="71" y="267" type="line"/>
      <point x="166" y="717" type="line"/>
      <point x="300" y="717" type="line"/>
      <point x="205" y="267" type="line"/>
    </contour>
    <contour>
      <point x="14" y="0" type="line"/>
      <point x="46" y="151" type="line"/>
      <point x="180" y="151" type="line"/>
      <point x="148" y="0" type="line"/>
    </contour>
  </outline>
</glyph>
<glyph name="numbersign" format="1">
  <advance width="692"/>
  <unicode hex="0023"/>
  <outline>
    <contour>
      <point x="682" y="424" type="line"/>
      <point x="543" y="424" type="line"/>
      <point x="484" y="287" type="line"/>
      <point x="608" y="287" type="line"/>
      <point x="587" y="187" type="line"/>
      <point x="439" y="187" type="line"/>
      <point x="356" y="0" type="line"/>
      <point x="249" y="0" type="line"/>
      <point x="332" y="187" type="line"/>
      <point x="226" y="187" type="line"/>
      <point x="143" y="0" type="line"/>
      <point x="35" y="0" type="line"/>
      <point x="118" y="187" type="line"/>
      <point x="12" y="187" type="line"/>
      <point x="33" y="287" type="line"/>
      <point x="164" y="287" type="line"/>
      <point x="222" y="424" type="line"/>
      <point x="107" y="424" type="line"/>
      <point x="128" y="518" type="line"/>
      <point x="266" y="518" type="line"/>
      <point x="351" y="710" type="line"/>
      <point x="458" y="710" type="line"/>
      <point x="373" y="518" type="line"/>
      <point x="479" y="518" type="line"/>
      <point x="564" y="710" type="line"/>
      <point x="672" y="710" type="line"/>
      <point x="586" y="518" type="line"/>
      <point x="703" y="518" type="line"/>
    </contour>
    <contour>
      <point x="377" y="287" type="line"/>
      <point x="436" y="424" type="line"/>
      <point x="330" y="424" type="line"/>
      <point x="272" y="287" type="line"/>
    </contour>
  </outline>
</glyph>
<glyph name="parenleft" format="1">
  <advance width="304"/>
  <unicode hex="0028"/>
  <outline>
    <contour>
      <point x="35" y="263" type="qcurve"/>
      <point x="35" y="329"/>
      <point x="72" y="451"/>
      <point x="137" y="572"/>
      <point x="224" y="693"/>
      <point x="274" y="757" type="qcurve"/>
      <point x="367" y="714" type="line"/>
      <point x="328" y="663"/>
      <point x="253" y="552"/>
      <point x="196" y="438"/>
      <point x="161" y="324"/>
      <point x="161" y="271" type="qcurve"/>
      <point x="161" y="209"/>
      <point x="189" y="64"/>
      <point x="212" y="-4" type="qcurve"/>
      <point x="103" y="-53" type="line"/>
      <point x="88" y="-18"/>
      <point x="63" y="60"/>
      <point x="45" y="142"/>
      <point x="35" y="224"/>
    </contour>
  </outline>
</glyph>
<glyph name="period" format="1">
  <advance width="224"/>
  <unicode hex="002E"/>
  <outline>
    <contour>
      <point x="-6" y="0" type="line"/>
      <point x="25" y="144" type="line"/>
      <point x="135" y="144" type="line"/>
      <point x="104" y="0" type="line"/>
    </contour>
  </outline>
</glyph>
<glyph name="two" format="1">
  <advance width="545"/>
  <unicode hex="0032"/>
  <outline>
    <contour>
      <point x="-26" y="0" type="line"/>
      <point x="-16" y="45"/>
      <point x="13" y="118"/>
      <point x="60" y="180"/>
      <point x="129" y="234"/>
      <point x="179" y="259" type="qcurve"/>
      <point x="225" y="283"/>
      <point x="296" y="317"/>
      <point x="343" y="348"/>
      <point x="367" y="381"/>
      <point x="367" y="404" type="qcurve"/>
      <point x="367" y="429"/>
      <point x="331" y="464"/>
      <point x="296" y="464" type="qcurve"/>
      <point x="252" y="464"/>
      <point x="179" y="416"/>
      <point x="148" y="387" type="qcurve"/>
      <point x="84" y="486" type="line"/>
      <point x="100" y="500"/>
      <point x="154" y="533"/>
      <point x="222" y="562"/>
      <point x="302" y="581"/>
      <point x="345" y="581" type="qcurve"/>
      <point x="431" y="581"/>
      <point x="519" y="504"/>
      <point x="519" y="442" type="qcurve"/>
      <point x="519" y="401"/>
      <point x="489" y="338"/>
      <point x="441" y="289"/>
      <point x="382" y="252"/>
      <point x="354" y="237" type="qcurve"/>
      <point x="336" y="228"/>
      <point x="293" y="204"/>
      <point x="251" y="175"/>
      <point x="213" y="140"/>
      <point x="200" y="121" type="qcurve"/>
      <point x="463" y="121" type="line"/>
      <point x="437" y="0" type="line"/>
    </contour>
  </outline>
</glyph>
<glyph name="colon" format="1">
  <advance width="244"/>
  <unicode hex="003A"/>
  <outline>
    <contour>
      <point x="82" y="374" type="line"/>
      <point x="113" y="518" type="line"/>
      <point x="222" y="518" type="line"/>
      <point x="192" y="374" type="line"/>
    </contour>
    <contour>
      <point x="3" y="0" type="line"/>
      <point x="34" y="144" type="line"/>
      <point x="143" y="144" type="line"/>
      <point x="112" y="0" type="line"/>
    </contour>
  </outline>
</glyph>
<glyph name="question" format="1">
  <advance width="471"/>
  <unicode hex="003F"/>
  <outline>
    <contour>
      <point x="101" y="233" type="line"/>
      <point x="111" y="282"/>
      <point x="156" y="362"/>
      <point x="211" y="389" type="qcurve"/>
      <point x="241" y="404"/>
      <point x="296" y="433"/>
      <point x="339" y="468"/>
      <point x="365" y="512"/>
      <point x="365" y="541" type="qcurve"/>
      <point x="365" y="574"/>
      <point x="324" y="610"/>
      <point x="295" y="610" type="qcurve"/>
      <point x="275" y="610"/>
      <point x="239" y="595"/>
      <point x="207" y="572"/>
      <point x="181" y="543"/>
      <point x="171" y="530" type="qcurve"/>
      <point x="96" y="590" type="line"/>
      <point x="134" y="652"/>
      <point x="257" y="719"/>
      <point x="323" y="719" type="qcurve"/>
      <point x="354" y="719"/>
      <point x="413" y="701"/>
      <point x="458" y="663"/>
      <point x="485" y="604"/>
      <point x="485" y="563" type="qcurve"/>
      <point x="485" y="519"/>
      <point x="464" y="454"/>
      <point x="426" y="406"/>
      <point x="376" y="370"/>
      <point x="347" y="354" type="qcurve"/>
      <point x="325" y="342"/>
      <point x="281" y="320"/>
      <point x="244" y="293"/>
      <point x="216" y="258"/>
      <point x="211" y="233" type="qcurve"/>
    </contour>
    <contour>
      <point x="54" y="0" type="line"/>
      <point x="83" y="138" type="line"/>
      <point x="193" y="138" type="line"/>
      <point x="164" y="0" type="line"/>
    </contour>
  </outline>
</glyph>
<glyph name="J" format="1">
  <advance width="479"/>
  <unicode hex="004A"/>
  <outline>
    <contour>
      <point x="432" y="708" type="move" name="top"/>
    </contour>
    <contour>
      <point x="94" y="-11" type="qcurve"/>
      <point x="9" y="-11"/>
      <point x="-43" y="33" type="qcurve"/>
      <point x="11" y="145" type="line"/>
      <point x="21" y="135"/>
      <point x="79" y="111"/>
      <point x="120" y="111" type="qcurve"/>
      <point x="159" y="111"/>
      <point x="211" y="140"/>
      <point x="247" y="200"/>
      <point x="273" y="289"/>
      <point x="286" y="349" type="qcurve"/>
      <point x="363" y="709" type="line"/>
      <point x="501" y="709" type="line"/>
      <point x="424" y="349" type="line"/>
      <point x="407" y="268"/>
      <point x="363" y="135"/>
      <point x="290" y="41"/>
      <point x="178" y="-11"/>
    </contour>
  </outline>
</glyph>
<glyph name="N" format="1">
  <advance width="733"/>
  <unicode hex="004E"/>
  <outline>
    <contour>
      <point x="457" y="708" type="move" name="top"/>
    </contour>
    <contour>
      <point x="313" y="0" type="move" name="bottom"/>
    </contour>
    <contour>
      <point x="161" y="710" type="line"/>
      <point x="268" y="710" type="line"/>
      <point x="510" y="244" type="line"/>
      <point x="609" y="709" type="line"/>
      <point x="746" y="709" type="line"/>
      <point x="595" y="0" type="line"/>
      <point x="484" y="0" type="line"/>
      <point x="243" y="455" type="line"/>
      <point x="147" y="0" type="line"/>
      <point x="10" y="0" type="line"/>
    </contour>
  </outline>
</glyph>
<glyph name="h" format="1">
  <advance width="582"/>
  <unicode hex="0068"/>
  <outline>
    <contour>
      <point x="369" y="521" type="move" name="top"/>
    </contour>
    <contour>
      <point x="151" y="730" type="line"/>
      <point x="285" y="730" type="line"/>
      <point x="220" y="427" type="line"/>
      <point x="259" y="478"/>
      <point x="363" y="533"/>
      <point x="420" y="533" type="qcurve"/>
      <point x="455" y="533"/>
      <point x="502" y="514"/>
      <point x="531" y="481"/>
      <point x="543" y="436"/>
      <point x="543" y="410" type="qcurve"/>
      <point x="543" y="390"/>
      <point x="538" y="348"/>
      <point x="533" y="327" type="qcurve"/>
      <point x="464" y="0" type="line"/>
      <point x="330" y="0" type="line"/>
      <point x="392" y="294" type="line"/>
      <point x="398" y="322"/>
      <point x="398" y="343" type="qcurve"/>
      <point x="398" y="415"/>
      <point x="337" y="415" type="qcurve"/>
      <point x="321" y="415"/>
      <point x="281" y="399"/>
      <point x="242" y="370"/>
      <point x="207" y="330"/>
      <point x="195" y="306" type="qcurve"/>
      <point x="130" y="0" type="line"/>
      <point x="-4" y="0" type="line"/>
    </contour>
  </outline>
</glyph>
<glyph name="p" format="1">
  <advance width="612"/>
  <unicode hex="0070"/>
  <outline>
    <contour>
      <point x="107" y="524" type="line"/>
      <point x="224" y="524" type="line"/>
      <point x="205" y="434" type="line"/>
      <point x="243" y="480"/>
      <point x="340" y="533"/>
      <point x="397" y="533" type="qcurve"/>
      <point x="439" y="533"/>
      <point x="507" y="500"/>
      <point x="554" y="441"/>
      <point x="579" y="363"/>
      <point x="579" y="318" type="qcurve"/>
      <point x="579" y="253"/>
      <point x="533" y="135"/>
      <point x="455" y="44"/>
      <point x="352" y="-10"/>
      <point x="296" y="-10" type="qcurve"/>
      <point x="239" y="-10"/>
      <point x="163" y="45"/>
      <point x="149" y="92" type="qcurve"/>
      <point x="84" y="-213" type="line"/>
      <point x="-50" y="-213" type="line"/>
    </contour>
    <contour>
      <point x="276" y="104" type="qcurve"/>
      <point x="308" y="104"/>
      <point x="367" y="137"/>
      <point x="412" y="191"/>
      <point x="439" y="260"/>
      <point x="439" y="296" type="qcurve"/>
      <point x="439" y="349"/>
      <point x="383" y="419"/>
      <point x="335" y="419" type="qcurve"/>
      <point x="317" y="419"/>
      <point x="279" y="406"/>
      <point x="243" y="382"/>
      <point x="211" y="350"/>
      <point x="200" y="331" type="qcurve"/>
      <point x="173" y="208" type="line"/>
      <point x="181" y="163"/>
      <point x="237" y="104"/>
    </contour>
  </outline>
</glyph>
<glyph name="v" format="1">
  <advance width="526"/>
  <unicode hex="0076"/>
  <outline>
    <contour>
      <point x="50" y="524" type="line"/>
      <point x="189" y="524" type="line"/>
      <point x="221" y="109" type="line"/>
      <point x="257" y="164"/>
      <point x="316" y="266"/>
      <point x="365" y="367"/>
      <point x="404" y="468"/>
      <point x="420" y="524" type="qcurve"/>
      <point x="543" y="524" type="line"/>
      <point x="507" y="393"/>
      <point x="362" y="131"/>
      <point x="260" y="0" type="qcurve"/>
      <point x="120" y="0" type="line"/>
    </contour>
  </outline>
</glyph>
<glyph name="cent" format="1">
  <advance width="571"/>
  <unicode hex="00A2"/>
  <outline>
    <contour>
      <point x="177" y="-120" type="line"/>
      <point x="201" y="-9" type="line"/>
      <point x="160" y="-6"/>
      <point x="95" y="34"/>
      <point x="50" y="95"/>
      <point x="27" y="171"/>
      <point x="27" y="212" type="qcurve"/>
      <point x="27" y="267"/>
      <point x="67" y="373"/>
      <point x="142" y="461"/>
      <point x="249" y="522"/>
      <point x="316" y="532" type="qcurve"/>
      <point x="340" y="645" type="line"/>
      <point x="400" y="645" type="line"/>
      <point x="376" y="532" type="line"/>
      <point x="442" y="530"/>
      <point x="536" y="462"/>
      <point x="554" y="399" type="qcurve"/>
      <point x="415" y="359" type="line"/>
      <point x="408" y="385"/>
      <point x="373" y="413"/>
      <point x="351" y="415" type="qcurve"/>
      <point x="286" y="107" type="line"/>
      <point x="310" y="112"/>
      <point x="363" y="143"/>
      <point x="376" y="166" type="qcurve"/>
      <point x="498" y="126" type="line"/>
      <point x="477" y="92"/>
      <point x="415" y="41"/>
      <point x="349" y="7"/>
      <point x="285" y="-10"/>
      <point x="261" y="-10" type="qcurve"/>
      <point x="237" y="-120" type="line"/>
    </contour>
    <contour>
      <point x="165" y="223" type="qcurve"/>
      <point x="165" y="185"/>
      <point x="198" y="124"/>
      <point x="227" y="113" type="qcurve"/>
      <point x="290" y="409" type="line"/>
      <point x="264" y="403"/>
      <point x="218" y="366"/>
      <point x="184" y="314"/>
      <point x="165" y="253"/>
    </contour>
  </outline>
</glyph>
<glyph name="brokenbar" format="1">
  <advance width="320"/>
  <unicode hex="00A6"/>
  <outline>
    <contour>
      <point x="222" y="264" type="line"/>
      <point x="222" y="-130" type="line"/>
      <point x="108" y="-130" type="line"/>
      <point x="108" y="264" type="line"/>
    </contour>
    <contour>
      <point x="222" y="775" type="line"/>
      <point x="222" y="381" type="line"/>
      <point x="108" y="381" type="line"/>
      <point x="108" y="775" type="line"/>
    </contour>
  </outline>
</glyph>
<glyph name="degree" format="1">
  <advance width="278"/>
  <unicode hex="00B0"/>
  <outline>
    <contour>
      <point x="183" y="519" type="qcurve"/>
      <point x="146" y="519"/>
      <point x="103" y="563"/>
      <point x="103" y="598" type="qcurve"/>
      <point x="103" y="622"/>
      <point x="122" y="667"/>
      <point x="155" y="703"/>
      <point x="201" y="724"/>
      <point x="227" y="724" type="qcurve"/>
      <point x="264" y="724"/>
      <point x="307" y="678"/>
      <point x="307" y="643" type="qcurve"/>
      <point x="307" y="617"/>
      <point x="287" y="571"/>
      <point x="254" y="538"/>
      <point x="208" y="519"/>
    </contour>
    <contour>
      <point x="197" y="584" type="qcurve"/>
      <point x="212" y="584"/>
      <point x="240" y="611"/>
      <point x="240" y="629" type="qcurve"/>
      <point x="240" y="643"/>
      <point x="224" y="659"/>
      <point x="213" y="659" type="qcurve"/>
      <point x="196" y="659"/>
      <point x="169" y="632"/>
      <point x="169" y="615" type="qcurve"/>
      <point x="169" y="601"/>
      <point x="183" y="584"/>
    </contour>
  </outline>
</glyph>
<glyph name="twosuperior" format="1">
  <advance width="403"/>
  <unicode hex="00B2"/>
  <outline>
    <contour>
      <point x="50" y="389" type="line"/>
      <point x="59" y="430"/>
      <point x="84" y="491"/>
      <point x="123" y="537"/>
      <point x="178" y="572"/>
      <point x="216" y="587" type="qcurve"/>
      <point x="243" y="597"/>
      <point x="295" y="617"/>
      <point x="337" y="640"/>
      <point x="363" y="671"/>
      <point x="363" y="693" type="qcurve"/>
      <point x="363" y="715"/>
      <point x="327" y="738"/>
      <point x="294" y="738" type="qcurve"/>
      <point x="252" y="738"/>
      <point x="187" y="706"/>
      <point x="166" y="689" type="qcurve"/>
      <point x="128" y="747" type="line"/>
      <point x="138" y="757"/>
      <point x="174" y="781"/>
      <point x="223" y="802"/>
      <point x="285" y="816"/>
      <point x="321" y="816" type="qcurve"/>
      <point x="387" y="816"/>
      <point x="455" y="759"/>
      <point x="455" y="710" type="qcurve"/>
      <point x="455" y="674"/>
      <point x="430" y="622"/>
      <point x="387" y="585"/>
      <point x="330" y="559"/>
      <point x="298" y="549" type="qcurve"/>
      <point x="249" y="533"/>
      <point x="200" y="490"/>
      <point x="195" y="467" type="qcurve"/>
      <point x="393" y="467" type="line"/>
      <point x="376" y="389" type="line"/>
    </contour>
  </outline>
</glyph>
<glyph name="cedilla" format="1">
  <advance width="313"/>
  <unicode hex="00B8"/>
  <outline>
    <contour>
      <point x="120" y="0" type="move" name="_bottom"/>
    </contour>
    <contour>
      <point x="19" y="-127" type="line"/>
      <point x="29" y="-134"/>
      <point x="74" y="-146"/>
      <point x="100" y="-146" type="qcurve"/>
      <point x="127" y="-146"/>
      <point x="161" y="-128"/>
      <point x="161" y="-107" type="qcurve"/>
      <point x="161" y="-92"/>
      <point x="137" y="-80"/>
      <point x="117" y="-80" type="qcurve"/>
      <point x="97" y="-80"/>
      <point x="51" y="-89"/>
      <point x="39" y="-92" type="qcurve"/>
      <point x="122" y="28" type="line"/>
      <point x="171" y="12" type="line"/>
      <point x="126" y="-42" type="line"/>
      <point x="133" y="-40"/>
      <point x="149" y="-38"/>
      <point x="157" y="-38" type="qcurve"/>
      <point x="186" y="-38"/>
      <point x="225" y="-65"/>
      <point x="225" y="-94" type="qcurve"/>
      <point x="225" y="-137"/>
      <point x="153" y="-196"/>
      <point x="80" y="-196" type="qcurve"/>
      <point x="48" y="-196"/>
      <point x="-1" y="-184"/>
      <point x="-18" y="-176" type="qcurve"/>
    </contour>
  </outline>
</glyph>
<glyph name="onesuperior" format="1">
  <advance width="288"/>
  <unicode hex="00B9"/>
  <outline>
    <contour>
      <point x="303" y="469" type="line"/>
      <point x="286" y="390" type="line"/>
      <point x="66" y="390" type="line"/>
      <point x="83" y="469" type="line"/>
      <point x="157" y="469" type="line"/>
      <point x="212" y="730" type="line"/>
      <point x="206" y="723"/>
      <point x="181" y="706"/>
      <point x="153" y="690"/>
      <point x="123" y="679"/>
      <point x="112" y="679" type="qcurve"/>
      <point x="129" y="758" type="line"/>
      <point x="144" y="758"/>
      <point x="179" y="775"/>
      <point x="209" y="796"/>
      <point x="230" y="815"/>
      <point x="230" y="816" type="qcurve"/>
      <point x="311" y="816" type="line"/>
      <point x="236" y="469" type="line"/>
    </contour>
  </outline>
</glyph>
<glyph name="Ccedilla" format="1">
  <advance width="656"/>
  <unicode hex="00C7"/>
  <outline>
    <contour>
      <point x="185" y="-127" type="line"/>
      <point x="195" y="-134"/>
      <point x="240" y="-146"/>
      <point x="266" y="-146" type="qcurve"/>
      <point x="293" y="-146"/>
      <point x="327" y="-128"/>
      <point x="327" y="-107" type="qcurve"/>
      <point x="327" y="-92"/>
      <point x="303" y="-80"/>
      <point x="283" y="-80" type="qcurve"/>
      <point x="263" y="-80"/>
      <point x="217" y="-89"/>
      <point x="205" y="-92" type="qcurve"/>
      <point x="265" y="-4" type="line"/>
      <point x="210" y="2"/>
      <point x="124" y="56"/>
      <point x="66" y="138"/>
      <point x="35" y="241"/>
      <point x="35" y="296" type="qcurve"/>
      <point x="35" y="345"/>
      <point x="63" y="445"/>
      <point x="116" y="538"/>
      <point x="191" y="619"/>
      <point x="284" y="679"/>
      <point x="392" y="714"/>
      <point x="452" y="714" type="qcurve"/>
      <point x="546" y="714"/>
      <point x="665" y="628"/>
      <point x="683" y="559" type="qcurve"/>
      <point x="562" y="486" type="line"/>
      <point x="556" y="516"/>
      <point x="528" y="557"/>
      <point x="489" y="581"/>
      <point x="444" y="592"/>
      <point x="422" y="592" type="qcurve"/>
      <point x="366" y="592"/>
      <point x="274" y="538"/>
      <point x="210" y="454"/>
      <point x="175" y="352"/>
      <point x="175" y="304" type="qcurve"/>
      <point x="175" y="266"/>
      <point x="195" y="198"/>
      <point x="233" y="146"/>
      <point x="288" y="116"/>
      <point x="324" y="116" type="qcurve"/>
      <point x="346" y="116"/>
      <point x="397" y="128"/>
      <point x="446" y="154"/>
      <point x="491" y="195"/>
      <point x="509" y="224" type="qcurve"/>
      <point x="608" y="159" type="line"/>
      <point x="586" y="123"/>
      <point x="521" y="65"/>
      <point x="444" y="23"/>
      <point x="362" y="-1"/>
      <point x="323" y="-4" type="qcurve"/>
      <point x="292" y="-42" type="line"/>
      <point x="299" y="-40"/>
      <point x="315" y="-38"/>
      <point x="323" y="-38" type="qcurve"/>
      <point x="352" y="-38"/>
      <point x="391" y="-65"/>
      <point x="391" y="-94" type="qcurve"/>
      <point x="391" y="-137"/>
      <point x="319" y="-196"/>
      <point x="246" y="-196" type="qcurve"/>
      <point x="214" y="-196"/>
      <point x="165" y="-184"/>
      <point x="148" y="-176" type="qcurve"/>
    </contour>
  </outline>
</glyph>
<glyph name="multiply" format="1">
  <advance width="487"/>
  <unicode hex="00D7"/>
  <outline>
    <contour>
      <point x="423" y="172" type="line"/>
      <point x="338" y="89" type="line"/>
      <point x="235" y="192" type="line"/>
      <point x="132" y="89" type="line"/>
      <point x="49" y="173" type="line"/>
      <point x="151" y="275" type="line"/>
      <point x="53" y="374" type="line"/>
      <point x="138" y="457" type="line"/>
      <point x="236" y="359" type="line"/>
      <point x="334" y="458" type="line"/>
      <point x="417" y="374" type="line"/>
      <point x="319" y="275" type="line"/>
    </contour>
  </outline>
</glyph>
<glyph name="ntilde" format="1">
  <advance width="582"/>
  <unicode hex="00F1"/>
  <outline>
    <contour>
      <point x="107" y="524" type="line"/>
      <point x="228" y="524" type="line"/>
      <point x="207" y="427" type="line"/>
      <point x="245" y="477"/>
      <point x="361" y="533"/>
      <point x="426" y="533" type="qcurve"/>
      <point x="460" y="533"/>
      <point x="505" y="514"/>
      <point x="532" y="482"/>
      <point x="543" y="437"/>
      <point x="543" y="412" type="qcurve"/>
      <point x="543" y="392"/>
      <point x="538" y="349"/>
      <point x="533" y="327" type="qcurve"/>
      <point x="464" y="0" type="line"/>
      <point x="330" y="0" type="line"/>
      <point x="392" y="294" type="line"/>
      <point x="395" y="309"/>
      <point x="399" y="336"/>
      <point x="399" y="347" type="qcurve"/>
      <point x="399" y="382"/>
      <point x="368" y="415"/>
      <point x="342" y="415" type="qcurve"/>
      <point x="324" y="415"/>
      <point x="282" y="399"/>
      <point x="242" y="370"/>
      <point x="207" y="330"/>
      <point x="195" y="306" type="qcurve"/>
      <point x="130" y="0" type="line"/>
      <point x="-4" y="0" type="line"/>
    </contour>
    <contour>
      <point x="405" y="602" type="qcurve"/>
      <point x="384" y="602"/>
      <point x="354" y="616"/>
      <point x="329" y="633"/>
      <point x="305" y="647"/>
      <point x="289" y="647" type="qcurve"/>
      <point x="273" y="647"/>
      <point x="252" y="633"/>
      <point x="240" y="615"/>
      <point x="235" y="600"/>
      <point x="235" y="599" type="qcurve"/>
      <point x="161" y="599" type="line"/>
      <point x="163" y="608"/>
      <point x="183" y="651"/>
      <point x="219" y="694"/>
      <point x="270" y="727"/>
      <point x="302" y="727" type="qcurve"/>
      <point x="324" y="727"/>
      <point x="352" y="712"/>
      <point x="376" y="695"/>
      <point x="400" y="680"/>
      <point x="417" y="680" type="qcurve"/>
      <point x="434" y="680"/>
      <point x="457" y="694"/>
      <point x="471" y="712"/>
      <point x="478" y="728"/>
      <point x="478" y="730" type="qcurve"/>
      <point x="551" y="730" type="line"/>
      <point x="549" y="723"/>
      <point x="529" y="681"/>
      <point x="492" y="637"/>
      <point x="439" y="602"/>
    </contour>
  </outline>
</glyph>
<glyph name="thorn" format="1">
  <advance width="577"/>
  <unicode hex="00FE"/>
  <outline>
    <contour>
      <point x="146" y="710" type="line"/>
      <point x="283" y="710" type="line"/>
      <point x="276" y="678"/>
      <point x="261" y="600"/>
      <point x="253" y="565" type="qcurve"/>
      <point x="244" y="525"/>
      <point x="236" y="483" type="qcurve"/>
      <point x="255" y="506"/>
      <point x="313" y="539"/>
      <point x="355" y="539" type="qcurve"/>
      <point x="403" y="539"/>
      <point x="475" y="502"/>
      <point x="523" y="441"/>
      <point x="547" y="363"/>
      <point x="547" y="322" type="qcurve"/>
      <point x="547" y="264"/>
      <point x="501" y="141"/>
      <point x="419" y="41"/>
      <point x="305" y="-24"/>
      <point x="237" y="-24" type="qcurve"/>
      <point x="189" y="-24"/>
      <point x="146" y="8"/>
      <point x="138" y="27" type="qcurve"/>
      <point x="128" y="-18"/>
      <point x="119" y="-62" type="qcurve"/>
      <point x="111" y="-100"/>
      <point x="94" y="-182"/>
      <point x="87" y="-213" type="qcurve"/>
      <point x="-50" y="-213" type="line"/>
    </contour>
    <contour>
      <point x="258" y="97" type="qcurve"/>
      <point x="291" y="97"/>
      <point x="347" y="131"/>
      <point x="387" y="187"/>
      <point x="409" y="259"/>
      <point x="409" y="297" type="qcurve"/>
      <point x="409" y="349"/>
      <point x="365" y="418"/>
      <point x="322" y="418" type="qcurve"/>
      <point x="287" y="418"/>
      <point x="228" y="371"/>
      <point x="204" y="336" type="qcurve"/>
      <point x="170" y="176" type="line"/>
      <point x="169" y="173"/>
      <point x="168" y="169"/>
      <point x="168" y="165" type="qcurve"/>
      <point x="168" y="153"/>
      <point x="180" y="129"/>
      <point x="204" y="110"/>
      <point x="237" y="97"/>
    </contour>
  </outline>
</glyph>
<glyph name="amacron" format="1">
  <advance width="624"/>
  <unicode hex="0101"/>
  <outline>
    <contour>
      <point x="201" y="-10" type="qcurve"/>
      <point x="157" y="-10"/>
      <point x="88" y="23"/>
      <point x="40" y="81"/>
      <point x="15" y="160"/>
      <point x="15" y="205" type="qcurve"/>
      <point x="15" y="270"/>
      <point x="62" y="389"/>
      <point x="141" y="479"/>
      <point x="245" y="533"/>
      <point x="302" y="533" type="qcurve"/>
      <point x="356" y="533"/>
      <point x="432" y="477"/>
      <point x="446" y="432" type="qcurve"/>
      <point x="466" y="522" type="line"/>
      <point x="600" y="522" type="line"/>
      <point x="522" y="154" type="line"/>
      <point x="519" y="143"/>
      <point x="519" y="136" type="qcurve"/>
      <point x="519" y="115"/>
      <point x="543" y="114" type="qcurve"/>
      <point x="519" y="0" type="line"/>
      <point x="501" y="-3"/>
      <point x="474" y="-7"/>
      <point x="464" y="-7" type="qcurve"/>
      <point x="429" y="-7"/>
      <point x="388" y="23"/>
      <point x="388" y="53" type="qcurve"/>
      <point x="388" y="65"/>
      <point x="394" y="91" type="qcurve"/>
      <point x="356" y="41"/>
      <point x="253" y="-10"/>
    </contour>
    <contour>
      <point x="261" y="104" type="qcurve"/>
      <point x="278" y="104"/>
      <point x="317" y="117"/>
      <point x="353" y="141"/>
      <point x="385" y="173"/>
      <point x="396" y="192" type="qcurve"/>
      <point x="422" y="317" type="line"/>
      <point x="416" y="361"/>
      <point x="358" y="419"/>
      <point x="320" y="419" type="qcurve"/>
      <point x="288" y="419"/>
      <point x="228" y="386"/>
      <point x="183" y="331"/>
      <point x="156" y="262"/>
      <point x="156" y="226" type="qcurve"/>
      <point x="156" y="174"/>
      <point x="212" y="104"/>
    </contour>
    <contour>
      <point x="204" y="632" type="line"/>
      <point x="222" y="715" type="line"/>
      <point x="508" y="715" type="line"/>
      <point x="490" y="632" type="line"/>
    </contour>
  </outline>
</glyph>
<glyph name="Gbreve" format="1">
  <advance width="697"/>
  <unicode hex="011E"/>
  <outline>
    <contour>
      <point x="494" y="80" type="line"/>
      <point x="443" y="36"/>
      <point x="344" y="-5"/>
      <point x="291" y="-5" type="qcurve"/>
      <point x="234" y="-5"/>
      <point x="141" y="40"/>
      <point x="74" y="118"/>
      <point x="37" y="225"/>
      <point x="37" y="287" type="qcurve"/>
      <point x="37" y="373"/>
      <point x="107" y="528"/>
      <point x="223" y="646"/>
      <point x="373" y="715"/>
      <point x="453" y="715" type="qcurve"/>
      <point x="548" y="715"/>
      <point x="667" y="631"/>
      <point x="687" y="560" type="qcurve"/>
      <point x="568" y="484" type="line"/>
      <point x="554" y="537"/>
      <point x="477" y="593"/>
      <point x="423" y="593" type="qcurve"/>
      <point x="373" y="593"/>
      <point x="285" y="544"/>
      <point x="217" y="463"/>
      <point x="178" y="358"/>
      <point x="178" y="302" type="qcurve"/>
      <point x="178" y="263"/>
      <point x="199" y="195"/>
      <point x="238" y="145"/>
      <point x="294" y="117"/>
      <point x="329" y="117" type="qcurve"/>
      <point x="425" y="117"/>
      <point x="522" y="214" type="qcurve"/>
      <point x="533" y="264" type="line"/>
      <point x="398" y="264" type="line"/>
      <point x="420" y="365" type="line"/>
      <point x="669" y="365" type="line"/>
      <point x="591" y="0" type="line"/>
      <point x="477" y="0" type="line"/>
    </contour>
    <contour>
      <point x="473" y="842" type="qcurve"/>
      <point x="494" y="842"/>
      <point x="535" y="884"/>
      <point x="545" y="916" type="qcurve"/>
      <point x="617" y="916" type="line"/>
      <point x="611" y="887"/>
      <point x="581" y="838"/>
      <point x="540" y="802"/>
      <point x="489" y="782"/>
      <point x="461" y="782" type="qcurve"/>
      <point x="412" y="782"/>
      <point x="357" y="838"/>
      <point x="357" y="883" type="qcurve"/>
      <point x="357" y="901"/>
      <point x="361" y="916" type="qcurve"/>
      <point x="433" y="916" type="line"/>
      <point x="430" y="905"/>
      <point x="430" y="896" type="qcurve"/>
      <point x="430" y="873"/>
      <point x="454" y="842"/>
    </contour>
  </outline>
</glyph>
<glyph name="Gdotaccent" format="1">
  <advance width="697"/>
  <unicode hex="0120"/>
  <outline>
    <contour>
      <point x="494" y="80" type="line"/>
      <point x="443" y="36"/>
      <point x="344" y="-5"/>
      <point x="291" y="-5" type="qcurve"/>
      <point x="234" y="-5"/>
      <point x="141" y="40"/>
      <point x="74" y="118"/>
      <point x="37" y="225"/>
      <point x="37" y="287" type="qcurve"/>
      <point x="37" y="373"/>
      <point x="107" y="528"/>
      <point x="223" y="646"/>
      <point x="373" y="715"/>
      <point x="453" y="715" type="qcurve"/>
      <point x="548" y="715"/>
      <point x="667" y="631"/>
      <point x="687" y="560" type="qcurve"/>
      <point x="568" y="484" type="line"/>
      <point x="554" y="537"/>
      <point x="477" y="593"/>
      <point x="423" y="593" type="qcurve"/>
      <point x="373" y="593"/>
      <point x="285" y="544"/>
      <point x="217" y="463"/>
      <point x="178" y="358"/>
      <point x="178" y="302" type="qcurve"/>
      <point x="178" y="263"/>
      <point x="199" y="195"/>
      <point x="238" y="145"/>
      <point x="294" y="117"/>
      <point x="329" y="117" type="qcurve"/>
      <point x="425" y="117"/>
      <point x="522" y="214" type="qcurve"/>
      <point x="533" y="264" type="line"/>
      <point x="398" y="264" type="line"/>
      <point x="420" y="365" type="line"/>
      <point x="669" y="365" type="line"/>
      <point x="591" y="0" type="line"/>
      <point x="477" y="0" type="line"/>
    </contour>
    <contour>
      <point x="411" y="790" type="line"/>
      <point x="438" y="916" type="line"/>
      <point x="558" y="916" type="line"/>
      <point x="532" y="790" type="line"/>
    </contour>
  </outline>
</glyph>
<glyph name="hbar" format="1">
  <advance width="582"/>
  <unicode hex="0127"/>
  <outline>
    <contour>
      <point x="79" y="671" type="line"/>
      <point x="138" y="671" type="line"/>
      <point x="151" y="730" type="line"/>
      <point x="285" y="730" type="line"/>
      <point x="272" y="671" type="line"/>
      <point x="366" y="671" type="line"/>
      <point x="349" y="591" type="line"/>
      <point x="255" y="591" type="line"/>
      <point x="220" y="427" type="line"/>
      <point x="259" y="478"/>
      <point x="363" y="533"/>
      <point x="420" y="533" type="qcurve"/>
      <point x="455" y="533"/>
      <point x="502" y="514"/>
      <point x="531" y="481"/>
      <point x="543" y="436"/>
      <point x="543" y="410" type="qcurve"/>
      <point x="543" y="390"/>
      <point x="538" y="348"/>
      <point x="533" y="327" type="qcurve"/>
      <point x="464" y="0" type="line"/>
      <point x="330" y="0" type="line"/>
      <point x="392" y="294" type="line"/>
      <point x="398" y="322"/>
      <point x="398" y="343" type="qcurve"/>
      <point x="398" y="415"/>
      <point x="337" y="415" type="qcurve"/>
      <point x="321" y="415"/>
      <point x="281" y="399"/>
      <point x="242" y="370"/>
      <point x="207" y="330"/>
      <point x="195" y="306" type="qcurve"/>
      <point x="130" y="0" type="line"/>
      <point x="-4" y="0" type="line"/>
      <point x="121" y="591" type="line"/>
      <point x="62" y="591" type="line"/>
    </contour>
  </outline>
</glyph>
<glyph name="Ibreve" format="1">
  <advance width="285"/>
  <unicode hex="012C"/>
  <outline>
    <contour>
      <point x="161" y="709" type="line"/>
      <point x="298" y="709" type="line"/>
      <point x="147" y="0" type="line"/>
      <point x="10" y="0" type="line"/>
    </contour>
    <contour>
      <point x="250" y="842" type="qcurve"/>
      <point x="271" y="842"/>
      <point x="312" y="884"/>
      <point x="322" y="916" type="qcurve"/>
      <point x="394" y="916" type="line"/>
      <point x="388" y="887"/>
      <point x="358" y="838"/>
      <point x="317" y="802"/>
      <point x="266" y="782"/>
      <point x="238" y="782" type="qcurve"/>
      <point x="189" y="782"/>
      <point x="134" y="838"/>
      <point x="134" y="883" type="qcurve"/>
      <point x="134" y="901"/>
      <point x="138" y="916" type="qcurve"/>
      <point x="210" y="916" type="line"/>
      <point x="207" y="905"/>
      <point x="207" y="896" type="qcurve"/>
      <point x="207" y="873"/>
      <point x="231" y="842"/>
    </contour>
  </outline>
</glyph>
<glyph name="ibreve" format="1">
  <advance width="253"/>
  <unicode hex="012D"/>
  <outline>
    <contour>
      <point x="107" y="524" type="line"/>
      <point x="241" y="524" type="line"/>
      <point x="130" y="0" type="line"/>
      <point x="-4" y="0" type="line"/>
    </contour>
    <contour>
      <point x="192" y="656" type="qcurve"/>
      <point x="213" y="656"/>
      <point x="254" y="698"/>
      <point x="264" y="730" type="qcurve"/>
      <point x="336" y="730" type="line"/>
      <point x="330" y="701"/>
      <point x="300" y="652"/>
      <point x="259" y="616"/>
      <point x="208" y="596"/>
      <point x="180" y="596" type="qcurve"/>
      <point x="131" y="596"/>
      <point x="76" y="652"/>
      <point x="76" y="697" type="qcurve"/>
      <point x="76" y="715"/>
      <point x="80" y="730" type="qcurve"/>
      <point x="152" y="730" type="line"/>
      <point x="149" y="719"/>
      <point x="149" y="710" type="qcurve"/>
      <point x="149" y="687"/>
      <point x="173" y="656"/>
    </contour>
  </outline>
</glyph>
<glyph name="IJ" format="1">
  <advance width="764"/>
  <unicode hex="0132"/>
  <outline>
    <contour>
      <point x="161" y="709" type="line"/>
      <point x="298" y="709" type="line"/>
      <point x="147" y="0" type="line"/>
      <point x="10" y="0" type="line"/>
    </contour>
    <contour>
      <point x="379" y="-11" type="qcurve"/>
      <point x="294" y="-11"/>
      <point x="242" y="33" type="qcurve"/>
      <point x="296" y="145" type="line"/>
      <point x="306" y="135"/>
      <point x="364" y="111"/>
      <point x="405" y="111" type="qcurve"/>
      <point x="444" y="111"/>
      <point x="496" y="140"/>
      <point x="532" y="200"/>
      <point x="558" y="289"/>
      <point x="571" y="349" type="qcurve"/>
      <point x="648" y="709" type="line"/>
      <point x="786" y="709" type="line"/>
      <point x="709" y="349" type="line"/>
      <point x="692" y="268"/>
      <point x="648" y="135"/>
      <point x="575" y="41"/>
      <point x="463" y="-11"/>
    </contour>
  </outline>
</glyph>
<glyph name="ij" format="1">
  <advance width="511"/>
  <unicode hex="0133"/>
  <outline>
    <contour>
      <point x="107" y="524" type="line"/>
      <point x="241" y="524" type="line"/>
      <point x="130" y="0" type="line"/>
      <point x="-4" y="0" type="line"/>
    </contour>
    <contour>
      <point x="151" y="730" type="line"/>
      <point x="285" y="730" type="line"/>
      <point x="257" y="597" type="line"/>
      <point x="123" y="597" type="line"/>
    </contour>
    <contour>
      <point x="170" y="-196" type="qcurve"/>
      <point x="134" y="-196"/>
      <point x="73" y="-173"/>
      <point x="52" y="-149" type="qcurve"/>
      <point x="128" y="-58" type="line"/>
      <point x="136" y="-69"/>
      <point x="163" y="-80"/>
      <point x="178" y="-80" type="qcurve"/>
      <point x="202" y="-80"/>
      <point x="244" y="-43"/>
      <point x="250" y="-14" type="qcurve"/>
      <point x="365" y="524" type="line"/>
      <point x="499" y="524" type="line"/>
      <point x="387" y="-4" type="line"/>
      <point x="378" y="-46"/>
      <point x="336" y="-117"/>
      <point x="277" y="-168"/>
      <point x="207" y="-196"/>
    </contour>
    <contour>
      <point x="409" y="730" type="line"/>
      <point x="543" y="730" type="line"/>
      <point x="514" y="597" type="line"/>
      <point x="380" y="597" type="line"/>
    </contour>
  </outline>
</glyph>
<glyph name="Jcircumflex" format="1">
  <advance width="479"/>
  <unicode hex="0134"/>
  <outline>
    <contour>
      <point x="303" y="815" type="line"/>
      <point x="426" y="916" type="line"/>
      <point x="523" y="916" type="line"/>
      <point x="603" y="815" type="line"/>
      <point x="526" y="783" type="line"/>
      <point x="459" y="846" type="line"/>
      <point x="365" y="783" type="line"/>
    </contour>
    <contour>
      <point x="94" y="-11" type="qcurve"/>
      <point x="9" y="-11"/>
      <point x="-43" y="33" type="qcurve"/>
      <point x="11" y="145" type="line"/>
      <point x="21" y="135"/>
      <point x="79" y="111"/>
      <point x="120" y="111" type="qcurve"/>
      <point x="159" y="111"/>
      <point x="211" y="140"/>
      <point x="247" y="200"/>
      <point x="273" y="289"/>
      <point x="286" y="349" type="qcurve"/>
      <point x="363" y="709" type="line"/>
      <point x="501" y="709" type="line"/>
      <point x="424" y="349" type="line"/>
      <point x="407" y="268"/>
      <point x="363" y="135"/>
      <point x="290" y="41"/>
      <point x="178" y="-11"/>
    </contour>
  </outline>
</glyph>
<glyph name="jcircumflex" format="1">
  <advance width="253"/>
  <unicode hex="0135"/>
  <outline>
    <contour>
      <point x="-88" y="-196" type="qcurve"/>
      <point x="-124" y="-196"/>
      <point x="-185" y="-173"/>
      <point x="-206" y="-149" type="qcurve"/>
      <point x="-130" y="-58" type="line"/>
      <point x="-122" y="-69"/>
      <point x="-95" y="-80"/>
      <point x="-80" y="-80" type="qcurve"/>
      <point x="-56" y="-80"/>
      <point x="-14" y="-43"/>
      <point x="-8" y="-14" type="qcurve"/>
      <point x="107" y="524" type="line"/>
      <point x="241" y="524" type="line"/>
      <point x="129" y="-4" type="line"/>
      <point x="120" y="-46"/>
      <point x="78" y="-117"/>
      <point x="19" y="-168"/>
      <point x="-51" y="-196"/>
    </contour>
    <contour>
      <point x="44" y="629" type="line"/>
      <point x="167" y="730" type="line"/>
      <point x="264" y="730" type="line"/>
      <point x="344" y="629" type="line"/>
      <point x="267" y="597" type="line"/>
      <point x="200" y="660" type="line"/>
      <point x="106" y="597" type="line"/>
    </contour>
  </outline>
</glyph>
<glyph name="lcaron" format="1">
  <advance width="304"/>
  <unicode hex="013E"/>
  <outline>
    <contour>
      <point x="303" y="611" type="line"/>
      <point x="380" y="730" type="line"/>
      <point x="503" y="730" type="line"/>
      <point x="384" y="585" type="line"/>
    </contour>
    <contour>
      <point x="121" y="-8" type="qcurve"/>
      <point x="70" y="-8"/>
      <point x="16" y="39"/>
      <point x="16" y="83" type="qcurve"/>
      <point x="16" y="92"/>
      <point x="18" y="110"/>
      <point x="20" y="121" type="qcurve"/>
      <point x="150" y="730" type="line"/>
      <point x="283" y="730" type="line"/>
      <point x="164" y="168" type="line"/>
      <point x="163" y="163"/>
      <point x="162" y="153"/>
      <point x="162" y="148" type="qcurve"/>
      <point x="162" y="107"/>
      <point x="203" y="107" type="qcurve"/>
      <point x="214" y="107"/>
      <point x="243" y="115"/>
      <point x="256" y="121" type="qcurve"/>
      <point x="252" y="19" type="line"/>
      <point x="223" y="6"/>
      <point x="150" y="-8"/>
    </contour>
  </outline>
</glyph>
<glyph name="ldot" format="1">
  <advance width="393"/>
  <unicode hex="0140"/>
  <outline>
    <contour>
      <point x="121" y="-8" type="qcurve"/>
      <point x="70" y="-8"/>
      <point x="16" y="39"/>
      <point x="16" y="83" type="qcurve"/>
      <point x="16" y="92"/>
      <point x="18" y="110"/>
      <point x="20" y="121" type="qcurve"/>
      <point x="150" y="730" type="line"/>
      <point x="283" y="730" type="line"/>
      <point x="164" y="168" type="line"/>
      <point x="163" y="163"/>
      <point x="162" y="153"/>
      <point x="162" y="148" type="qcurve"/>
      <point x="162" y="107"/>
      <point x="203" y="107" type="qcurve"/>
      <point x="214" y="107"/>
      <point x="243" y="115"/>
      <point x="256" y="121" type="qcurve"/>
      <point x="252" y="19" type="line"/>
      <point x="223" y="6"/>
      <point x="150" y="-8"/>
    </contour>
    <contour>
      <point x="262" y="266" type="line"/>
      <point x="294" y="417" type="line"/>
      <point x="404" y="417" type="line"/>
      <point x="372" y="266" type="line"/>
    </contour>
  </outline>
</glyph>
<glyph name="uni0163" format="1">
  <advance width="373"/>
  <unicode hex="0163"/>
  <outline>
    <contour>
      <point x="38" y="-127" type="line"/>
      <point x="48" y="-134"/>
      <point x="93" y="-146"/>
      <point x="119" y="-146" type="qcurve"/>
      <point x="146" y="-146"/>
      <point x="180" y="-128"/>
      <point x="180" y="-107" type="qcurve"/>
      <point x="180" y="-92"/>
      <point x="156" y="-80"/>
      <point x="136" y="-80" type="qcurve"/>
      <point x="116" y="-80"/>
      <point x="70" y="-89"/>
      <point x="58" y="-92" type="qcurve"/>
      <point x="118" y="-5" type="line"/>
      <point x="86" y="2"/>
      <point x="47" y="45"/>
      <point x="47" y="83" type="qcurve"/>
      <point x="47" y="103"/>
      <point x="51" y="120" type="qcurve"/>
      <point x="115" y="421" type="line"/>
      <point x="50" y="421" type="line"/>
      <point x="72" y="524" type="line"/>
      <point x="136" y="524" type="line"/>
      <point x="172" y="694" type="line"/>
      <point x="306" y="694" type="line"/>
      <point x="270" y="524" type="line"/>
      <point x="375" y="524" type="line"/>
      <point x="353" y="421" type="line"/>
      <point x="249" y="421" type="line"/>
      <point x="194" y="165" type="line"/>
      <point x="193" y="160"/>
      <point x="192" y="153"/>
      <point x="192" y="149" type="qcurve"/>
      <point x="192" y="130"/>
      <point x="213" y="114"/>
      <point x="230" y="114" type="qcurve"/>
      <point x="250" y="114"/>
      <point x="289" y="127"/>
      <point x="303" y="133" type="qcurve"/>
      <point x="307" y="27" type="line"/>
      <point x="281" y="14"/>
      <point x="209" y="-6"/>
      <point x="173" y="-8" type="qcurve"/>
      <point x="145" y="-42" type="line"/>
      <point x="152" y="-40"/>
      <point x="168" y="-38"/>
      <point x="176" y="-38" type="qcurve"/>
      <point x="205" y="-38"/>
      <point x="244" y="-65"/>
      <point x="244" y="-94" type="qcurve"/>
      <point x="244" y="-137"/>
      <point x="172" y="-196"/>
      <point x="99" y="-196" type="qcurve"/>
      <point x="67" y="-196"/>
      <point x="18" y="-184"/>
      <point x="1" y="-176" type="qcurve"/>
    </contour>
  </outline>
</glyph>
<glyph name="utilde" format="1">
  <advance width="595"/>
  <unicode hex="0169"/>
  <outline>
    <contour>
      <point x="145" y="-10" type="qcurve"/>
      <point x="22" y="-10"/>
      <point x="22" y="118" type="qcurve"/>
      <point x="22" y="135"/>
      <point x="27" y="174"/>
      <point x="32" y="196" type="qcurve"/>
      <point x="102" y="524" type="line"/>
      <point x="235" y="524" type="line"/>
      <point x="172" y="225" type="line"/>
      <point x="169" y="210"/>
      <point x="165" y="186"/>
      <point x="165" y="175" type="qcurve"/>
      <point x="165" y="104"/>
      <point x="225" y="104" type="qcurve"/>
      <point x="260" y="104"/>
      <point x="337" y="151"/>
      <point x="369" y="199" type="qcurve"/>
      <point x="438" y="524" type="line"/>
      <point x="572" y="524" type="line"/>
      <point x="493" y="154" type="line"/>
      <point x="492" y="149"/>
      <point x="491" y="140"/>
      <point x="491" y="136" type="qcurve"/>
      <point x="491" y="115"/>
      <point x="515" y="114" type="qcurve"/>
      <point x="491" y="0" type="line"/>
      <point x="473" y="-3"/>
      <point x="446" y="-7"/>
      <point x="435" y="-7" type="qcurve"/>
      <point x="400" y="-7"/>
      <point x="361" y="21"/>
      <point x="361" y="50" type="qcurve"/>
      <point x="361" y="58"/>
      <point x="363" y="78"/>
      <point x="368" y="98" type="qcurve"/>
      <point x="323" y="44"/>
      <point x="208" y="-10"/>
    </contour>
    <contour>
      <point x="408" y="602" type="qcurve"/>
      <point x="387" y="602"/>
      <point x="357" y="616"/>
      <point x="332" y="633"/>
      <point x="308" y="647"/>
      <point x="292" y="647" type="qcurve"/>
      <point x="276" y="647"/>
      <point x="255" y="633"/>
      <point x="243" y="615"/>
      <point x="238" y="600"/>
      <point x="238" y="599" type="qcurve"/>
      <point x="164" y="599" type="line"/>
      <point x="166" y="608"/>
      <point x="186" y="651"/>
      <point x="222" y="694"/>
      <point x="273" y="727"/>
      <point x="305" y="727" type="qcurve"/>
      <point x="327" y="727"/>
      <point x="355" y="712"/>
      <point x="379" y="695"/>
      <point x="403" y="680"/>
      <point x="420" y="680" type="qcurve"/>
      <point x="437" y="680"/>
      <point x="460" y="694"/>
      <point x="474" y="712"/>
      <point x="481" y="728"/>
      <point x="481" y="730" type="qcurve"/>
      <point x="554" y="730" type="line"/>
      <point x="552" y="723"/>
      <point x="532" y="681"/>
      <point x="495" y="637"/>
      <point x="442" y="602"/>
    </contour>
  </outline>
</glyph>
<glyph name="Schwa" format="1">
  <advance width="718"/>
  <unicode hex="018F"/>
  <outline>
    <contour>
      <point x="288" y="-5" type="qcurve"/>
      <point x="223" y="-5"/>
      <point x="124" y="43"/>
      <point x="56" y="124"/>
      <point x="22" y="227"/>
      <point x="22" y="283" type="qcurve"/>
      <point x="22" y="325"/>
      <point x="38" y="384"/>
      <point x="46" y="401" type="qcurve"/>
      <point x="554" y="401" type="line"/>
      <point x="555" y="409"/>
      <point x="556" y="424"/>
      <point x="556" y="432" type="qcurve"/>
      <point x="556" y="507"/>
      <point x="476" y="592"/>
      <point x="414" y="592" type="qcurve"/>
      <point x="388" y="592"/>
      <point x="335" y="576"/>
      <point x="287" y="548"/>
      <point x="248" y="507"/>
      <point x="236" y="483" type="qcurve"/>
      <point x="106" y="530" type="line"/>
      <point x="134" y="571"/>
      <point x="208" y="639"/>
      <point x="295" y="688"/>
      <point x="392" y="715"/>
      <point x="443" y="715" type="qcurve"/>
      <point x="506" y="715"/>
      <point x="603" y="667"/>
      <point x="670" y="587"/>
      <point x="704" y="482"/>
      <point x="704" y="425" type="qcurve"/>
      <point x="704" y="345"/>
      <point x="639" y="191"/>
      <point x="527" y="69"/>
      <point x="375" y="-5"/>
    </contour>
    <contour>
      <point x="316" y="116" type="qcurve"/>
      <point x="352" y="116"/>
      <point x="418" y="142"/>
      <point x="475" y="189"/>
      <point x="518" y="254"/>
      <point x="530" y="293" type="qcurve"/>
      <point x="166" y="293" type="line"/>
      <point x="162" y="276"/>
      <point x="162" y="255" type="qcurve"/>
      <point x="162" y="225"/>
      <point x="184" y="174"/>
      <point x="224" y="137"/>
      <point x="281" y="116"/>
    </contour>
  </outline>
</glyph>
<glyph name="uni01C7" format="1">
  <advance width="1040"/>
  <unicode hex="01C7"/>
  <outline>
    <contour>
      <point x="655" y="-11" type="qcurve"/>
      <point x="570" y="-11"/>
      <point x="518" y="33" type="qcurve"/>
      <point x="572" y="145" type="line"/>
      <point x="582" y="135"/>
      <point x="640" y="111"/>
      <point x="681" y="111" type="qcurve"/>
      <point x="720" y="111"/>
      <point x="772" y="140"/>
      <point x="808" y="200"/>
      <point x="834" y="289"/>
      <point x="847" y="349" type="qcurve"/>
      <point x="924" y="709" type="line"/>
      <point x="1062" y="709" type="line"/>
      <point x="985" y="349" type="line"/>
      <point x="968" y="268"/>
      <point x="924" y="135"/>
      <point x="851" y="41"/>
      <point x="739" y="-11"/>
    </contour>
    <contour>
      <point x="161" y="710" type="line"/>
      <point x="298" y="710" type="line"/>
      <point x="173" y="121" type="line"/>
      <point x="512" y="121" type="line"/>
      <point x="487" y="0" type="line"/>
      <point x="10" y="0" type="line"/>
    </contour>
  </outline>
</glyph>
<glyph name="uni01C9" format="1">
  <advance width="567"/>
  <unicode hex="01C9"/>
  <outline>
    <contour>
      <point x="226" y="-196" type="qcurve"/>
      <point x="190" y="-196"/>
      <point x="129" y="-173"/>
      <point x="108" y="-149" type="qcurve"/>
      <point x="184" y="-58" type="line"/>
      <point x="192" y="-69"/>
      <point x="219" y="-80"/>
      <point x="234" y="-80" type="qcurve"/>
      <point x="258" y="-80"/>
      <point x="300" y="-43"/>
      <point x="306" y="-14" type="qcurve"/>
      <point x="421" y="524" type="line"/>
      <point x="555" y="524" type="line"/>
      <point x="443" y="-4" type="line"/>
      <point x="434" y="-46"/>
      <point x="392" y="-117"/>
      <point x="333" y="-168"/>
      <point x="263" y="-196"/>
    </contour>
    <contour>
      <point x="465" y="730" type="line"/>
      <point x="599" y="730" type="line"/>
      <point x="570" y="597" type="line"/>
      <point x="436" y="597" type="line"/>
    </contour>
    <contour>
      <point x="121" y="-8" type="qcurve"/>
      <point x="70" y="-8"/>
      <point x="16" y="39"/>
      <point x="16" y="83" type="qcurve"/>
      <point x="16" y="92"/>
      <point x="18" y="110"/>
      <point x="20" y="121" type="qcurve"/>
      <point x="150" y="730" type="line"/>
      <point x="283" y="730" type="line"/>
      <point x="164" y="168" type="line"/>
      <point x="163" y="163"/>
      <point x="162" y="153"/>
      <point x="162" y="148" type="qcurve"/>
      <point x="162" y="107"/>
      <point x="203" y="107" type="qcurve"/>
      <point x="214" y="107"/>
      <point x="243" y="115"/>
      <point x="256" y="121" type="qcurve"/>
      <point x="252" y="19" type="line"/>
      <point x="223" y="6"/>
      <point x="150" y="-8"/>
    </contour>
  </outline>
</glyph>
<glyph name="uni01CC" format="1">
  <advance width="840"/>
  <unicode hex="01CC"/>
  <outline>
    <contour>
      <point x="499" y="-196" type="qcurve"/>
      <point x="463" y="-196"/>
      <point x="402" y="-173"/>
      <point x="381" y="-149" type="qcurve"/>
      <point x="457" y="-58" type="line"/>
      <point x="465" y="-69"/>
      <point x="492" y="-80"/>
      <point x="507" y="-80" type="qcurve"/>
      <point x="531" y="-80"/>
      <point x="573" y="-43"/>
      <point x="579" y="-14" type="qcurve"/>
      <point x="694" y="524" type="line"/>
      <point x="828" y="524" type="line"/>
      <point x="716" y="-4" type="line"/>
      <point x="707" y="-46"/>
      <point x="665" y="-117"/>
      <point x="606" y="-168"/>
      <point x="536" y="-196"/>
    </contour>
    <contour>
      <point x="738" y="730" type="line"/>
      <point x="872" y="730" type="line"/>
      <point x="843" y="597" type="line"/>
      <point x="709" y="597" type="line"/>
    </contour>
    <contour>
      <point x="107" y="524" type="line"/>
      <point x="228" y="524" type="line"/>
      <point x="207" y="427" type="line"/>
      <point x="245" y="477"/>
      <point x="361" y="533"/>
      <point x="426" y="533" type="qcurve"/>
      <point x="460" y="533"/>
      <point x="505" y="514"/>
      <point x="532" y="482"/>
      <point x="543" y="437"/>
      <point x="543" y="412" type="qcurve"/>
      <point x="543" y="392"/>
      <point x="538" y="349"/>
      <point x="533" y="327" type="qcurve"/>
      <point x="464" y="0" type="line"/>
      <point x="330" y="0" type="line"/>
      <point x="392" y="294" type="line"/>
      <point x="395" y="309"/>
      <point x="399" y="336"/>
      <point x="399" y="347" type="qcurve"/>
      <point x="399" y="382"/>
      <point x="368" y="415"/>
      <point x="342" y="415" type="qcurve"/>
      <point x="324" y="415"/>
      <point x="282" y="399"/>
      <point x="242" y="370"/>
      <point x="207" y="330"/>
      <point x="195" y="306" type="qcurve"/>
      <point x="130" y="0" type="line"/>
      <point x="-4" y="0" type="line"/>
    </contour>
  </outline>
</glyph>
<glyph name="Oogonek" format="1">
  <advance width="728"/>
  <unicode hex="01EA"/>
  <outline>
    <contour>
      <point x="264" y="-196" type="line"/>
      <point x="214" y="-188"/>
      <point x="167" y="-147"/>
      <point x="167" y="-120" type="qcurve"/>
      <point x="167" y="-59"/>
      <point x="265" y="-3" type="qcurve"/>
      <point x="209" y="3"/>
      <point x="124" y="56"/>
      <point x="67" y="136"/>
      <point x="37" y="236"/>
      <point x="37" y="290" type="qcurve"/>
      <point x="37" y="371"/>
      <point x="106" y="524"/>
      <point x="222" y="643"/>
      <point x="373" y="715"/>
      <point x="455" y="715" type="qcurve"/>
      <point x="518" y="715"/>
      <point x="615" y="665"/>
      <point x="680" y="583"/>
      <point x="714" y="475"/>
      <point x="714" y="418" type="qcurve"/>
      <point x="714" y="343"/>
      <point x="654" y="200"/>
      <point x="552" y="85"/>
      <point x="417" y="7"/>
      <point x="342" y="-2" type="qcurve"/>
      <point x="254" y="-53"/>
      <point x="254" y="-91" type="qcurve"/>
      <point x="254" y="-123"/>
      <point x="306" y="-126" type="qcurve"/>
    </contour>
    <contour>
      <point x="326" y="117" type="qcurve"/>
      <point x="381" y="117"/>
      <point x="472" y="171"/>
      <point x="538" y="255"/>
      <point x="574" y="358"/>
      <point x="574" y="408" type="qcurve"/>
      <point x="574" y="445"/>
      <point x="556" y="512"/>
      <point x="519" y="562"/>
      <point x="463" y="592"/>
      <point x="426" y="592" type="qcurve"/>
      <point x="371" y="592"/>
      <point x="279" y="539"/>
      <point x="213" y="455"/>
      <point x="177" y="352"/>
      <point x="177" y="301" type="qcurve"/>
      <point x="177" y="264"/>
      <point x="195" y="198"/>
      <point x="233" y="147"/>
      <point x="288" y="117"/>
    </contour>
  </outline>
</glyph>
<glyph name="AEacute" format="1">
  <advance width="929"/>
  <unicode hex="01FC"/>
  <outline>
    <contour>
      <point x="620" y="780" type="line"/>
      <point x="533" y="797" type="line"/>
      <point x="609" y="916" type="line"/>
      <point x="733" y="916" type="line"/>
    </contour>
    <contour>
      <point x="490" y="710" type="line"/>
      <point x="974" y="710" type="line"/>
      <point x="948" y="589" type="line"/>
      <point x="637" y="589" type="line"/>
      <point x="602" y="422" type="line"/>
      <point x="861" y="422" type="line"/>
      <point x="835" y="301" type="line"/>
      <point x="576" y="301" type="line"/>
      <point x="538" y="121" type="line"/>
      <point x="856" y="121" type="line"/>
      <point x="831" y="0" type="line"/>
      <point x="375" y="0" type="line"/>
      <point x="413" y="177" type="line"/>
      <point x="200" y="177" type="line"/>
      <point x="67" y="0" type="line"/>
      <point x="-80" y="0" type="line"/>
    </contour>
    <contour>
      <point x="428" y="297" type="line"/>
      <point x="483" y="555" type="line"/>
      <point x="285" y="297" type="line"/>
    </contour>
  </outline>
</glyph>
<glyph name="aeacute" format="1">
  <advance width="893"/>
  <unicode hex="01FD"/>
  <outline>
    <contour>
      <point x="525" y="594" type="line"/>
      <point x="438" y="611" type="line"/>
      <point x="514" y="730" type="line"/>
      <point x="638" y="730" type="line"/>
    </contour>
    <contour>
      <point x="131" y="-10" type="qcurve"/>
      <point x="65" y="-10"/>
      <point x="-11" y="67"/>
      <point x="-11" y="127" type="qcurve"/>
      <point x="-11" y="170"/>
      <point x="29" y="242"/>
      <point x="97" y="295"/>
      <point x="189" y="325"/>
      <point x="241" y="325" type="qcurve"/>
      <point x="272" y="325"/>
      <point x="328" y="315"/>
      <point x="348" y="305" type="qcurve"/>
      <point x="353" y="324"/>
      <point x="366" y="354"/>
      <point x="366" y="371" type="qcurve"/>
      <point x="366" y="402"/>
      <point x="321" y="440"/>
      <point x="276" y="440" type="qcurve"/>
      <point x="237" y="440"/>
      <point x="155" y="410"/>
      <point x="108" y="381" type="qcurve"/>
      <point x="86" y="466" type="line"/>
      <point x="198" y="533"/>
      <point x="310" y="533" type="qcurve"/>
      <point x="368" y="533"/>
      <point x="447" y="494"/>
      <point x="467" y="459" type="qcurve"/>
      <point x="506" y="493"/>
      <point x="604" y="533"/>
      <point x="660" y="533" type="qcurve"/>
      <point x="712" y="533"/>
      <point x="791" y="499"/>
      <point x="844" y="439"/>
      <point x="871" y="359"/>
      <point x="871" y="314" type="qcurve"/>
      <point x="871" y="276"/>
      <point x="857" y="231"/>
      <point x="852" y="219" type="qcurve"/>
      <point x="468" y="219" type="line"/>
      <point x="467" y="213"/>
      <point x="467" y="202"/>
      <point x="467" y="197" type="qcurve"/>
      <point x="467" y="168"/>
      <point x="484" y="127"/>
      <point x="512" y="100"/>
      <point x="550" y="88"/>
      <point x="570" y="88" type="qcurve"/>
      <point x="607" y="88"/>
      <point x="681" y="127"/>
      <point x="700" y="159" type="qcurve"/>
      <point x="807" y="127" type="line"/>
      <point x="787" y="97"/>
      <point x="731" y="47"/>
      <point x="664" y="10"/>
      <point x="587" y="-10"/>
      <point x="545" y="-10" type="qcurve"/>
      <point x="473" y="-10"/>
      <point x="376" y="49"/>
      <point x="353" y="98" type="qcurve"/>
      <point x="330" y="69"/>
      <point x="272" y="28"/>
      <point x="212" y="2"/>
      <point x="155" y="-10"/>
    </contour>
    <contour>
      <point x="191" y="88" type="qcurve"/>
      <point x="209" y="88"/>
      <point x="251" y="99"/>
      <point x="290" y="118"/>
      <point x="322" y="143"/>
      <point x="330" y="157" type="qcurve"/>
      <point x="329" y="162"/>
      <point x="328" y="175"/>
      <point x="328" y="182" type="qcurve"/>
      <point x="328" y="205"/>
      <point x="333" y="233" type="qcurve"/>
      <point x="314" y="241"/>
      <point x="268" y="250"/>
      <point x="247" y="250" type="qcurve"/>
      <point x="221" y="250"/>
      <point x="174" y="235"/>
      <point x="140" y="210"/>
      <point x="120" y="174"/>
      <point x="120" y="153" type="qcurve"/>
      <point x="120" y="125"/>
      <point x="156" y="88"/>
    </contour>
    <contour>
      <point x="734" y="302" type="line"/>
      <point x="735" y="309"/>
      <point x="735" y="320"/>
      <point x="735" y="327" type="qcurve"/>
      <point x="735" y="377"/>
      <point x="683" y="436"/>
      <point x="636" y="436" type="qcurve"/>
      <point x="584" y="436"/>
      <point x="500" y="362"/>
      <point x="483" y="302" type="qcurve"/>
    </contour>
  </outline>
</glyph>
<glyph name="udblgrave" format="1">
  <advance width="595"/>
  <unicode hex="0215"/>
  <outline>
    <contour>
      <point x="356" y="730" type="line"/>
      <point x="458" y="730" type="line"/>
      <point x="478" y="611" type="line"/>
      <point x="405" y="593" type="line"/>
    </contour>
    <contour>
      <point x="199" y="730" type="line"/>
      <point x="303" y="730" type="line"/>
      <point x="321" y="611" type="line"/>
      <point x="249" y="593" type="line"/>
    </contour>
    <contour>
      <point x="145" y="-10" type="qcurve"/>
      <point x="22" y="-10"/>
      <point x="22" y="118" type="qcurve"/>
      <point x="22" y="135"/>
      <point x="27" y="174"/>
      <point x="32" y="196" type="qcurve"/>
      <point x="102" y="524" type="line"/>
      <point x="235" y="524" type="line"/>
      <point x="172" y="225" type="line"/>
      <point x="169" y="210"/>
      <point x="165" y="186"/>
      <point x="165" y="175" type="qcurve"/>
      <point x="165" y="104"/>
      <point x="225" y="104" type="qcurve"/>
      <point x="260" y="104"/>
      <point x="337" y="151"/>
      <point x="369" y="199" type="qcurve"/>
      <point x="438" y="524" type="line"/>
      <point x="572" y="524" type="line"/>
      <point x="493" y="154" type="line"/>
      <point x="492" y="149"/>
      <point x="491" y="140"/>
      <point x="491" y="136" type="qcurve"/>
      <point x="491" y="115"/>
      <point x="515" y="114" type="qcurve"/>
      <point x="491" y="0" type="line"/>
      <point x="473" y="-3"/>
      <point x="446" y="-7"/>
      <point x="435" y="-7" type="qcurve"/>
      <point x="400" y="-7"/>
      <point x="361" y="21"/>
      <point x="361" y="50" type="qcurve"/>
      <point x="361" y="58"/>
      <point x="363" y="78"/>
      <point x="368" y="98" type="qcurve"/>
      <point x="323" y="44"/>
      <point x="208" y="-10"/>
    </contour>
  </outline>
</glyph>
<glyph name="uni021A" format="1">
  <advance width="592"/>
  <unicode hex="021A"/>
  <outline>
    <contour>
      <point x="142" y="-213" type="line"/>
      <point x="185" y="-141" type="line"/>
      <point x="145" y="-141" type="line"/>
      <point x="166" y="-47" type="line"/>
      <point x="278" y="-47" type="line"/>
      <point x="259" y="-141" type="line"/>
      <point x="203" y="-213" type="line"/>
    </contour>
    <contour>
      <point x="289" y="589" type="line"/>
      <point x="76" y="589" type="line"/>
      <point x="101" y="710" type="line"/>
      <point x="664" y="710" type="line"/>
      <point x="638" y="589" type="line"/>
      <point x="426" y="589" type="line"/>
      <point x="301" y="0" type="line"/>
      <point x="163" y="0" type="line"/>
    </contour>
  </outline>
</glyph>
<glyph name="ogonek" format="1">
  <advance width="280"/>
  <unicode hex="02DB"/>
  <outline>
    <contour>
      <point x="167" y="0" type="move" name="_bottom"/>
    </contour>
    <contour>
      <point x="135" y="-196" type="line"/>
      <point x="85" y="-188"/>
      <point x="38" y="-147"/>
      <point x="38" y="-120" type="qcurve"/>
      <point x="38" y="-47"/>
      <point x="182" y="21" type="qcurve"/>
      <point x="217" y="0" type="line"/>
      <point x="125" y="-53"/>
      <point x="125" y="-91" type="qcurve"/>
      <point x="125" y="-123"/>
      <point x="177" y="-126" type="qcurve"/>
    </contour>
  </outline>
</glyph>
<glyph name="bullet" format="1">
  <advance width="354"/>
  <unicode hex="2022"/>
  <outline>
    <contour>
      <point x="289" y="368" type="qcurve"/>
      <point x="289" y="343"/>
      <point x="268" y="299"/>
      <point x="232" y="265"/>
      <point x="187" y="245"/>
      <point x="163" y="245" type="qcurve"/>
      <point x="128" y="245"/>
      <point x="83" y="295"/>
      <point x="83" y="331" type="qcurve"/>
      <point x="83" y="356"/>
      <point x="105" y="400"/>
      <point x="140" y="434"/>
      <point x="185" y="454"/>
      <point x="208" y="454" type="qcurve"/>
      <point x="245" y="454"/>
      <point x="289" y="403"/>
    </contour>
  </outline>
</glyph>
<glyph name="eightsuperior" format="1">
  <advance width="405"/>
  <unicode hex="2078"/>
  <outline>
    <contour>
      <point x="421" y="533" type="qcurve"/>
      <point x="421" y="502"/>
      <point x="387" y="449"/>
      <point x="331" y="410"/>
      <point x="259" y="388"/>
      <point x="221" y="388" type="qcurve"/>
      <point x="189" y="388"/>
      <point x="135" y="405"/>
      <point x="96" y="435"/>
      <point x="75" y="476"/>
      <point x="75" y="500" type="qcurve"/>
      <point x="75" y="524"/>
      <point x="93" y="561"/>
      <point x="122" y="589"/>
      <point x="160" y="611"/>
      <point x="180" y="619" type="qcurve"/>
      <point x="159" y="628"/>
      <point x="130" y="661"/>
      <point x="130" y="687" type="qcurve"/>
      <point x="130" y="715"/>
      <point x="164" y="762"/>
      <point x="217" y="796"/>
      <point x="281" y="815"/>
      <point x="311" y="815" type="qcurve"/>
      <point x="336" y="815"/>
      <point x="385" y="801"/>
      <point x="422" y="774"/>
      <point x="445" y="737"/>
      <point x="445" y="715" type="qcurve"/>
      <point x="445" y="680"/>
      <point x="395" y="632"/>
      <point x="360" y="619" type="qcurve"/>
      <point x="387" y="605"/>
      <point x="421" y="563"/>
    </contour>
    <contour>
      <point x="341" y="532" type="qcurve"/>
      <point x="341" y="556"/>
      <point x="293" y="583"/>
      <point x="262" y="583" type="qcurve"/>
      <point x="242" y="583"/>
      <point x="205" y="573"/>
      <point x="176" y="556"/>
      <point x="158" y="532"/>
      <point x="158" y="518" type="qcurve"/>
      <point x="158" y="494"/>
      <point x="208" y="467"/>
      <point x="239" y="467" type="qcurve"/>
      <point x="257" y="467"/>
      <point x="294" y="477"/>
      <point x="323" y="494"/>
      <point x="341" y="518"/>
    </contour>
    <contour>
      <point x="209" y="688" type="qcurve"/>
      <point x="209" y="669"/>
      <point x="251" y="648"/>
      <point x="276" y="648" type="qcurve"/>
      <point x="290" y="648"/>
      <point x="321" y="655"/>
      <point x="346" y="668"/>
      <point x="363" y="686"/>
      <point x="363" y="698" type="qcurve"/>
      <point x="363" y="717"/>
      <point x="323" y="738"/>
      <point x="295" y="738" type="qcurve"/>
      <point x="262" y="738"/>
      <point x="209" y="711"/>
    </contour>
  </outline>
</glyph>
<glyph name="sixinferior" format="1">
  <advance width="412"/>
  <unicode hex="2086"/>
  <outline>
    <contour>
      <point x="335" y="78" type="qcurve"/>
      <point x="335" y="44"/>
      <point x="301" y="-17"/>
      <point x="244" y="-63"/>
      <point x="168" y="-90"/>
      <point x="127" y="-90" type="qcurve"/>
      <point x="61" y="-90"/>
      <point x="-11" y="-12"/>
      <point x="-11" y="57" type="qcurve"/>
      <point x="-11" y="118"/>
      <point x="24" y="221"/>
      <point x="88" y="297"/>
      <point x="176" y="340"/>
      <point x="230" y="340" type="qcurve"/>
      <point x="274" y="340"/>
      <point x="342" y="308"/>
      <point x="359" y="276" type="qcurve"/>
      <point x="302" y="221" type="line"/>
      <point x="291" y="241"/>
      <point x="242" y="265"/>
      <point x="210" y="265" type="qcurve"/>
      <point x="162" y="265"/>
      <point x="92" y="208"/>
      <point x="80" y="156" type="qcurve"/>
      <point x="99" y="176"/>
      <point x="164" y="196"/>
      <point x="193" y="196" type="qcurve"/>
      <point x="259" y="196"/>
      <point x="335" y="129"/>
    </contour>
    <contour>
      <point x="144" y="-17" type="qcurve"/>
      <point x="166" y="-17"/>
      <point x="207" y="-3"/>
      <point x="239" y="19"/>
      <point x="258" y="49"/>
      <point x="258" y="65" type="qcurve"/>
      <point x="258" y="91"/>
      <point x="211" y="128"/>
      <point x="175" y="128" type="qcurve"/>
      <point x="153" y="128"/>
      <point x="112" y="115"/>
      <point x="80" y="93"/>
      <point x="61" y="63"/>
      <point x="61" y="47" type="qcurve"/>
      <point x="61" y="21"/>
      <point x="109" y="-17"/>
    </contour>
  </outline>
</glyph>
<glyph name="seveninferior" format="1">
  <advance width="376"/>
  <unicode hex="2087"/>
  <outline>
    <contour>
      <point x="240" y="258" type="line"/>
      <point x="14" y="258" type="line"/>
      <point x="31" y="337" type="line"/>
      <point x="381" y="337" type="line"/>
      <point x="54" y="-84" type="line"/>
      <point x="-35" y="-84" type="line"/>
    </contour>
  </outline>
</glyph>
<glyph name="nineinferior" format="1">
  <advance width="414"/>
  <unicode hex="2089"/>
  <outline>
    <contour>
      <point x="3" y="171" type="qcurve"/>
      <point x="3" y="205"/>
      <point x="37" y="267"/>
      <point x="94" y="313"/>
      <point x="170" y="340"/>
      <point x="211" y="340" type="qcurve"/>
      <point x="277" y="340"/>
      <point x="349" y="262"/>
      <point x="349" y="192" type="qcurve"/>
      <point x="349" y="132"/>
      <point x="314" y="28"/>
      <point x="251" y="-47"/>
      <point x="163" y="-90"/>
      <point x="109" y="-90" type="qcurve"/>
      <point x="65" y="-90"/>
      <point x="-4" y="-57"/>
      <point x="-21" y="-25" type="qcurve"/>
      <point x="37" y="30" type="line"/>
      <point x="48" y="9"/>
      <point x="96" y="-15"/>
      <point x="128" y="-15" type="qcurve"/>
      <point x="176" y="-15"/>
      <point x="246" y="42"/>
      <point x="258" y="94" type="qcurve"/>
      <point x="239" y="74"/>
      <point x="175" y="53"/>
      <point x="145" y="53" type="qcurve"/>
      <point x="79" y="53"/>
      <point x="3" y="120"/>
    </contour>
    <contour>
      <point x="194" y="267" type="qcurve"/>
      <point x="172" y="267"/>
      <point x="131" y="253"/>
      <point x="100" y="231"/>
      <point x="81" y="201"/>
      <point x="81" y="185" type="qcurve"/>
      <point x="81" y="159"/>
      <point x="128" y="123"/>
      <point x="164" y="123" type="qcurve"/>
      <point x="185" y="123"/>
      <point x="226" y="136"/>
      <point x="257" y="158"/>
      <point x="276" y="187"/>
      <point x="276" y="203" type="qcurve"/>
      <point x="276" y="229"/>
      <point x="230" y="267"/>
    </contour>
  </outline>
</glyph>
<glyph name="afii61352" format="1">
  <advance width="1097"/>
  <unicode hex="2116"/>
  <outline>
    <contour>
      <point x="244" y="455" type="line"/>
      <point x="148" y="0" type="line"/>
      <point x="10" y="0" type="line"/>
      <point x="161" y="710" type="line"/>
      <point x="268" y="710" type="line"/>
      <point x="511" y="244" type="line"/>
      <point x="610" y="709" type="line"/>
      <point x="747" y="709" type="line"/>
      <point x="596" y="0" type="line"/>
      <point x="485" y="0" type="line"/>
    </contour>
    <contour>
      <point x="913" y="339" type="qcurve"/>
      <point x="877" y="339"/>
      <point x="824" y="363"/>
      <point x="788" y="403"/>
      <point x="770" y="458"/>
      <point x="770" y="488" type="qcurve"/>
      <point x="770" y="531"/>
      <point x="803" y="612"/>
      <point x="862" y="675"/>
      <point x="944" y="713"/>
      <point x="993" y="713" type="qcurve"/>
      <point x="1028" y="713"/>
      <point x="1081" y="689"/>
      <point x="1117" y="649"/>
      <point x="1135" y="595"/>
      <point x="1135" y="564" type="qcurve"/>
      <point x="1135" y="521"/>
      <point x="1102" y="440"/>
      <point x="1044" y="377"/>
      <point x="962" y="339"/>
    </contour>
    <contour>
      <point x="870" y="501" type="qcurve"/>
      <point x="870" y="466"/>
      <point x="903" y="423"/>
      <point x="931" y="423" type="qcurve"/>
      <point x="951" y="423"/>
      <point x="988" y="443"/>
      <point x="1017" y="478"/>
      <point x="1035" y="525"/>
      <point x="1035" y="551" type="qcurve"/>
      <point x="1035" y="585"/>
      <point x="1002" y="628"/>
      <point x="975" y="628" type="qcurve"/>
      <point x="955" y="628"/>
      <point x="917" y="608"/>
      <point x="888" y="573"/>
      <point x="870" y="527"/>
    </contour>
  </outline>
</glyph>
<glyph name="servicemark" format="1">
  <advance width="763"/>
  <unicode hex="2120"/>
  <outline>
    <contour>
      <point x="658" y="710" type="line"/>
      <point x="787" y="710" type="line"/>
      <point x="724" y="411" type="line"/>
      <point x="638" y="411" type="line"/>
      <point x="677" y="598" type="line"/>
      <point x="587" y="453" type="line"/>
      <point x="517" y="453" type="line"/>
      <point x="488" y="598" type="line"/>
      <point x="448" y="411" type="line"/>
      <point x="362" y="411" type="line"/>
      <point x="425" y="710" type="line"/>
      <point x="554" y="710" type="line"/>
      <point x="573" y="553" type="line"/>
    </contour>
    <contour>
      <point x="326" y="618" type="line"/>
      <point x="307" y="631"/>
      <point x="269" y="648"/>
      <point x="246" y="648" type="qcurve"/>
      <point x="202" y="648"/>
      <point x="202" y="623" type="qcurve"/>
      <point x="202" y="615"/>
      <point x="223" y="602"/>
      <point x="252" y="594" type="qcurve"/>
      <point x="300" y="583"/>
      <point x="346" y="548"/>
      <point x="346" y="516" type="qcurve"/>
      <point x="346" y="489"/>
      <point x="324" y="449"/>
      <point x="286" y="421"/>
      <point x="234" y="407"/>
      <point x="203" y="407" type="qcurve"/>
      <point x="166" y="407"/>
      <point x="96" y="428"/>
      <point x="73" y="446" type="qcurve"/>
      <point x="120" y="510" type="line"/>
      <point x="139" y="496"/>
      <point x="189" y="475"/>
      <point x="217" y="475" type="qcurve"/>
      <point x="261" y="475"/>
      <point x="261" y="497" type="qcurve"/>
      <point x="261" y="507"/>
      <point x="237" y="520"/>
      <point x="206" y="528" type="qcurve"/>
      <point x="161" y="540"/>
      <point x="119" y="573"/>
      <point x="119" y="602" type="qcurve"/>
      <point x="119" y="627"/>
      <point x="141" y="669"/>
      <point x="180" y="699"/>
      <point x="231" y="715"/>
      <point x="260" y="715" type="qcurve"/>
      <point x="291" y="715"/>
      <point x="346" y="698"/>
      <point x="371" y="682" type="qcurve"/>
    </contour>
  </outline>
</glyph>
<glyph name="twothirds" format="1">
  <advance width="881"/>
  <unicode hex="2154"/>
  <outline>
    <contour>
      <point x="40" y="305" type="line"/>
      <point x="48" y="346"/>
      <point x="73" y="407"/>
      <point x="111" y="453"/>
      <point x="164" y="488"/>
      <point x="200" y="503" type="qcurve"/>
      <point x="226" y="513"/>
      <point x="277" y="532"/>
      <point x="317" y="555"/>
      <point x="342" y="586"/>
      <point x="342" y="609" type="qcurve"/>
      <point x="342" y="630"/>
      <point x="307" y="654"/>
      <point x="275" y="654" type="qcurve"/>
      <point x="235" y="654"/>
      <point x="172" y="622"/>
      <point x="152" y="605" type="qcurve"/>
      <point x="116" y="662" type="line"/>
      <point x="125" y="672"/>
      <point x="160" y="696"/>
      <point x="208" y="717"/>
      <point x="267" y="731"/>
      <point x="301" y="731" type="qcurve"/>
      <point x="365" y="731"/>
      <point x="431" y="675"/>
      <point x="431" y="625" type="qcurve"/>
      <point x="431" y="590"/>
      <point x="407" y="539"/>
      <point x="366" y="501"/>
      <point x="310" y="474"/>
      <point x="279" y="464" type="qcurve"/>
      <point x="231" y="449"/>
      <point x="185" y="406"/>
      <point x="180" y="383" type="qcurve"/>
      <point x="371" y="383" type="line"/>
      <point x="354" y="305" type="line"/>
    </contour>
    <contour>
      <point x="118" y="47" type="line"/>
      <point x="455" y="376" type="line"/>
      <point x="774" y="718" type="line"/>
      <point x="823" y="664" type="line"/>
      <point x="494" y="340" type="line"/>
      <point x="166" y="-7" type="line"/>
    </contour>
    <contour>
      <point x="603" y="-5" type="qcurve"/>
      <point x="543" y="-5"/>
      <point x="468" y="35"/>
      <point x="463" y="74" type="qcurve"/>
      <point x="518" y="132" type="line"/>
      <point x="519" y="126"/>
      <point x="531" y="106"/>
      <point x="555" y="87"/>
      <point x="592" y="74"/>
      <point x="618" y="74" type="qcurve"/>
      <point x="661" y="74"/>
      <point x="725" y="104"/>
      <point x="725" y="132" type="qcurve"/>
      <point x="725" y="158"/>
      <point x="657" y="182"/>
      <point x="596" y="182" type="qcurve"/>
      <point x="573" y="182" type="line"/>
      <point x="588" y="254" type="line"/>
      <point x="610" y="254" type="line"/>
      <point x="672" y="254"/>
      <point x="750" y="282"/>
      <point x="750" y="313" type="qcurve"/>
      <point x="750" y="333"/>
      <point x="705" y="353"/>
      <point x="681" y="353" type="qcurve"/>
      <point x="643" y="353"/>
      <point x="586" y="326"/>
      <point x="563" y="304" type="qcurve"/>
      <point x="526" y="367" type="line"/>
      <point x="554" y="396"/>
      <point x="648" y="427"/>
      <point x="696" y="427" type="qcurve"/>
      <point x="759" y="427"/>
      <point x="837" y="370"/>
      <point x="837" y="327" type="qcurve"/>
      <point x="837" y="285"/>
      <point x="777" y="231"/>
      <point x="725" y="222" type="qcurve"/>
      <point x="764" y="216"/>
      <point x="805" y="166"/>
      <point x="805" y="133" type="qcurve"/>
      <point x="805" y="97"/>
      <point x="769" y="45"/>
      <point x="712" y="11"/>
      <point x="640" y="-5"/>
    </contour>
  </outline>
</glyph>
<glyph name="Delta" format="1">
  <advance width="663"/>
  <unicode hex="2206"/>
  <outline>
    <contour>
      <point x="615" y="104" type="line"/>
      <point x="615" y="0" type="line"/>
      <point x="0" y="0" type="line"/>
      <point x="0" y="104" type="line"/>
      <point x="252" y="710" type="line"/>
      <point x="364" y="710" type="line"/>
    </contour>
    <contour>
      <point x="478" y="121" type="line"/>
      <point x="308" y="557" type="line"/>
      <point x="140" y="121" type="line"/>
    </contour>
  </outline>
</glyph>
<glyph name="approxequal" format="1">
  <advance width="455"/>
  <unicode hex="2248"/>
  <outline>
    <contour>
      <point x="393" y="357" type="line"/>
      <point x="379" y="331"/>
      <point x="327" y="289"/>
      <point x="287" y="289" type="qcurve"/>
      <point x="264" y="289"/>
      <point x="230" y="303"/>
      <point x="200" y="320"/>
      <point x="172" y="334"/>
      <point x="156" y="334" type="qcurve"/>
      <point x="136" y="334"/>
      <point x="116" y="319"/>
      <point x="111" y="309" type="qcurve"/>
      <point x="50" y="353" type="line"/>
      <point x="64" y="379"/>
      <point x="112" y="419"/>
      <point x="151" y="419" type="qcurve"/>
      <point x="174" y="419"/>
      <point x="207" y="404"/>
      <point x="236" y="387"/>
      <point x="265" y="372"/>
      <point x="283" y="372" type="qcurve"/>
      <point x="303" y="372"/>
      <point x="327" y="388"/>
      <point x="333" y="397" type="qcurve"/>
    </contour>
    <contour>
      <point x="393" y="199" type="line"/>
      <point x="379" y="175"/>
      <point x="327" y="134"/>
      <point x="287" y="134" type="qcurve"/>
      <point x="264" y="134"/>
      <point x="230" y="148"/>
      <point x="200" y="164"/>
      <point x="172" y="178"/>
      <point x="156" y="178" type="qcurve"/>
      <point x="136" y="178"/>
      <point x="116" y="163"/>
      <point x="111" y="154" type="qcurve"/>
      <point x="50" y="198" type="line"/>
      <point x="64" y="223"/>
      <point x="112" y="264"/>
      <point x="151" y="264" type="qcurve"/>
      <point x="174" y="264"/>
      <point x="207" y="249"/>
      <point x="236" y="232"/>
      <point x="265" y="217"/>
      <point x="283" y="217" type="qcurve"/>
      <point x="303" y="217"/>
      <point x="327" y="232"/>
      <point x="333" y="242" type="qcurve"/>
    </contour>
  </outline>
</glyph>
<glyph name="f_f" format="1">
  <advance width="621"/>
  <unicode hex="FB00"/>
  <outline>
    <contour>
      <point x="108" y="394" type="line"/>
      <point x="44" y="394" type="line"/>
      <point x="66" y="496" type="line"/>
      <point x="130" y="496" type="line"/>
      <point x="133" y="509" type="line"/>
      <point x="143" y="550"/>
      <point x="181" y="621"/>
      <point x="236" y="674"/>
      <point x="305" y="704"/>
      <point x="345" y="704" type="qcurve"/>
      <point x="377" y="704"/>
      <point x="436" y="688"/>
      <point x="464" y="675" type="qcurve"/>
      <point x="493" y="705"/>
      <point x="566" y="740"/>
      <point x="611" y="740" type="qcurve"/>
      <point x="647" y="740"/>
      <point x="701" y="720"/>
      <point x="726" y="709" type="qcurve"/>
      <point x="678" y="608" type="line"/>
      <point x="666" y="615"/>
      <point x="635" y="626"/>
      <point x="615" y="626" type="qcurve"/>
      <point x="577" y="626"/>
      <point x="532" y="570"/>
      <point x="524" y="533" type="qcurve"/>
      <point x="516" y="496" type="line"/>
      <point x="644" y="496" type="line"/>
      <point x="623" y="394" type="line"/>
      <point x="495" y="394" type="line"/>
      <point x="411" y="0" type="line"/>
      <point x="277" y="0" type="line"/>
      <point x="361" y="394" type="line"/>
      <point x="242" y="394" type="line"/>
      <point x="159" y="0" type="line"/>
      <point x="25" y="0" type="line"/>
    </contour>
    <contour>
      <point x="382" y="496" type="line"/>
      <point x="386" y="515"/>
      <point x="399" y="559"/>
      <point x="407" y="576" type="qcurve"/>
      <point x="394" y="584"/>
      <point x="362" y="590"/>
      <point x="348" y="590" type="qcurve"/>
      <point x="313" y="590"/>
      <point x="273" y="547"/>
      <point x="267" y="513" type="qcurve"/>
      <point x="264" y="496" type="line"/>
    </contour>
  </outline>
</glyph>
<glyph name="f_f_i" format="1">
  <advance width="804"/>
  <unicode hex="FB03"/>
  <outline>
    <contour>
      <point x="108" y="394" type="line"/>
      <point x="44" y="394" type="line"/>
      <point x="66" y="496" type="line"/>
      <point x="130" y="496" type="line"/>
      <point x="133" y="509" type="line"/>
      <point x="142" y="549"/>
      <point x="180" y="620"/>
      <point x="235" y="673"/>
      <point x="305" y="704"/>
      <point x="345" y="704" type="qcurve"/>
      <point x="377" y="704"/>
      <point x="436" y="688"/>
      <point x="464" y="675" type="qcurve"/>
      <point x="496" y="705"/>
      <point x="585" y="740"/>
      <point x="639" y="740" type="qcurve"/>
      <point x="688" y="740"/>
      <point x="776" y="704"/>
      <point x="814" y="675" type="qcurve"/>
      <point x="740" y="575" type="line"/>
      <point x="720" y="597"/>
      <point x="659" y="626"/>
      <point x="628" y="626" type="qcurve"/>
      <point x="584" y="626"/>
      <point x="532" y="570"/>
      <point x="524" y="533" type="qcurve"/>
      <point x="516" y="496" type="line"/>
      <point x="786" y="496" type="line"/>
      <point x="681" y="0" type="line"/>
      <point x="546" y="0" type="line"/>
      <point x="630" y="394" type="line"/>
      <point x="495" y="394" type="line"/>
      <point x="411" y="0" type="line"/>
      <point x="277" y="0" type="line"/>
      <point x="361" y="394" type="line"/>
      <point x="242" y="394" type="line"/>
      <point x="159" y="0" type="line"/>
      <point x="25" y="0" type="line"/>
    </contour>
    <contour>
      <point x="382" y="496" type="line"/>
      <point x="386" y="515"/>
      <point x="399" y="559"/>
      <point x="407" y="576" type="qcurve"/>
      <point x="394" y="584"/>
      <point x="362" y="590"/>
      <point x="348" y="590" type="qcurve"/>
      <point x="313" y="590"/>
      <point x="274" y="545"/>
      <point x="267" y="513" type="qcurve"/>
      <point x="264" y="496" type="line"/>
    </contour>
  </outline>
</glyph>
<glyph name="P.sc" format="1">
  <advance width="535"/>
  <outline>
    <contour>
      <point x="122" y="559" type="line"/>
      <point x="373" y="559" type="line"/>
      <point x="409" y="559"/>
      <point x="467" y="532"/>
      <point x="506" y="488"/>
      <point x="527" y="430"/>
      <point x="527" y="400" type="qcurve"/>
      <point x="527" y="360"/>
      <point x="491" y="282"/>
      <point x="429" y="221"/>
      <point x="345" y="183"/>
      <point x="298" y="183" type="qcurve"/>
      <point x="163" y="183" type="line"/>
      <point x="124" y="0" type="line"/>
      <point x="4" y="0" type="line"/>
    </contour>
    <contour>
      <point x="313" y="289" type="line"/>
      <point x="331" y="289"/>
      <point x="363" y="303"/>
      <point x="388" y="328"/>
      <point x="403" y="365"/>
      <point x="403" y="388" type="qcurve"/>
      <point x="403" y="420"/>
      <point x="368" y="453"/>
      <point x="343" y="453" type="qcurve"/>
      <point x="220" y="453" type="line"/>
      <point x="185" y="289" type="line"/>
    </contour>
  </outline>
</glyph>
<glyph name="U.sc" format="1">
  <advance width="627"/>
  <outline>
    <contour>
      <point x="319" y="707" type="move" name="top"/>
    </contour>
    <contour>
      <point x="319" y="0" type="move" name="bottom"/>
    </contour>
    <contour>
      <point x="249" y="-4" type="qcurve"/>
      <point x="193" y="-4"/>
      <point x="115" y="26"/>
      <point x="66" y="78"/>
      <point x="44" y="150"/>
      <point x="44" y="191" type="qcurve"/>
      <point x="44" y="231"/>
      <point x="53" y="273" type="qcurve"/>
      <point x="113" y="559" type="line"/>
      <point x="234" y="559" type="line"/>
      <point x="174" y="273" type="line"/>
      <point x="171" y="258"/>
      <point x="167" y="229"/>
      <point x="167" y="215" type="qcurve"/>
      <point x="167" y="168"/>
      <point x="214" y="103"/>
      <point x="272" y="103" type="qcurve"/>
      <point x="311" y="103"/>
      <point x="369" y="132"/>
      <point x="410" y="180"/>
      <point x="436" y="241"/>
      <point x="443" y="273" type="qcurve"/>
      <point x="503" y="559" type="line"/>
      <point x="624" y="559" type="line"/>
      <point x="564" y="273" type="line"/>
      <point x="552" y="215"/>
      <point x="501" y="114"/>
      <point x="423" y="39"/>
      <point x="316" y="-4"/>
    </contour>
  </outline>
</glyph>
<glyph name="eight.denominator" format="1">
  <advance width="407"/>
  <outline>
    <contour>
      <point x="138" y="-5" type="qcurve"/>
      <point x="106" y="-5"/>
      <point x="53" y="12"/>
      <point x="14" y="42"/>
      <point x="-7" y="83"/>
      <point x="-7" y="107" type="qcurve"/>
      <point x="-7" y="131"/>
      <point x="10" y="168"/>
      <point x="39" y="196"/>
      <point x="77" y="218"/>
      <point x="97" y="226" type="qcurve"/>
      <point x="76" y="235"/>
      <point x="48" y="268"/>
      <point x="48" y="294" type="qcurve"/>
      <point x="48" y="322"/>
      <point x="82" y="369"/>
      <point x="134" y="402"/>
      <point x="198" y="421"/>
      <point x="228" y="421" type="qcurve"/>
      <point x="253" y="421"/>
      <point x="302" y="407"/>
      <point x="340" y="381"/>
      <point x="363" y="344"/>
      <point x="363" y="322" type="qcurve"/>
      <point x="363" y="287"/>
      <point x="313" y="239"/>
      <point x="278" y="226" type="qcurve"/>
      <point x="304" y="212"/>
      <point x="339" y="170"/>
      <point x="339" y="140" type="qcurve"/>
      <point x="339" y="109"/>
      <point x="305" y="56"/>
      <point x="249" y="17"/>
      <point x="176" y="-5"/>
    </contour>
    <contour>
      <point x="156" y="74" type="qcurve"/>
      <point x="174" y="74"/>
      <point x="211" y="83"/>
      <point x="241" y="100"/>
      <point x="259" y="124"/>
      <point x="259" y="139" type="qcurve"/>
      <point x="259" y="162"/>
      <point x="211" y="190"/>
      <point x="179" y="190" type="qcurve"/>
      <point x="160" y="190"/>
      <point x="123" y="180"/>
      <point x="93" y="163"/>
      <point x="75" y="139"/>
      <point x="75" y="125" type="qcurve"/>
      <point x="75" y="101"/>
      <point x="125" y="74"/>
    </contour>
    <contour>
      <point x="193" y="255" type="qcurve"/>
      <point x="208" y="255"/>
      <point x="238" y="262"/>
      <point x="264" y="275"/>
      <point x="280" y="293"/>
      <point x="280" y="305" type="qcurve"/>
      <point x="280" y="323"/>
      <point x="240" y="345"/>
      <point x="212" y="345" type="qcurve"/>
      <point x="196" y="345"/>
      <point x="165" y="338"/>
      <point x="141" y="324"/>
      <point x="126" y="306"/>
      <point x="126" y="294" type="qcurve"/>
      <point x="126" y="276"/>
      <point x="168" y="255"/>
    </contour>
  </outline>
</glyph>
<glyph name="five.denominator" format="1">
  <advance width="382"/>
  <outline>
    <contour>
      <point x="114" y="-5" type="qcurve"/>
      <point x="63" y="-5"/>
      <point x="-11" y="33"/>
      <point x="-25" y="66" type="qcurve"/>
      <point x="33" y="119" type="line"/>
      <point x="47" y="96"/>
      <point x="99" y="70"/>
      <point x="134" y="70" type="qcurve"/>
      <point x="176" y="70"/>
      <point x="240" y="113"/>
      <point x="240" y="154" type="qcurve"/>
      <point x="240" y="184"/>
      <point x="197" y="213"/>
      <point x="172" y="213" type="qcurve"/>
      <point x="147" y="213"/>
      <point x="93" y="188"/>
      <point x="77" y="168" type="qcurve"/>
      <point x="8" y="168" type="line"/>
      <point x="19" y="195"/>
      <point x="49" y="263"/>
      <point x="79" y="332"/>
      <point x="108" y="398"/>
      <point x="117" y="422" type="qcurve"/>
      <point x="348" y="422" type="line"/>
      <point x="331" y="342" type="line"/>
      <point x="157" y="342" type="line"/>
      <point x="116" y="255" type="line"/>
      <point x="128" y="263"/>
      <point x="166" y="273"/>
      <point x="190" y="273" type="qcurve"/>
      <point x="250" y="273"/>
      <point x="321" y="211"/>
      <point x="321" y="160" type="qcurve"/>
      <point x="321" y="124"/>
      <point x="288" y="64"/>
      <point x="231" y="20"/>
      <point x="156" y="-5"/>
    </contour>
  </outline>
</glyph>
<glyph name="three.denominator" format="1">
  <advance width="392"/>
  <outline>
    <contour>
      <point x="119" y="-5" type="qcurve"/>
      <point x="59" y="-5"/>
      <point x="-16" y="35"/>
      <point x="-21" y="74" type="qcurve"/>
      <point x="34" y="132" type="line"/>
      <point x="35" y="126"/>
      <point x="47" y="106"/>
      <point x="71" y="87"/>
      <point x="108" y="74"/>
      <point x="134" y="74" type="qcurve"/>
      <point x="177" y="74"/>
      <point x="241" y="104"/>
      <point x="241" y="132" type="qcurve"/>
      <point x="241" y="158"/>
      <point x="173" y="182"/>
      <point x="112" y="182" type="qcurve"/>
      <point x="89" y="182" type="line"/>
      <point x="104" y="254" type="line"/>
      <point x="126" y="254" type="line"/>
      <point x="188" y="254"/>
      <point x="266" y="282"/>
      <point x="266" y="313" type="qcurve"/>
      <point x="266" y="333"/>
      <point x="221" y="353"/>
      <point x="197" y="353" type="qcurve"/>
      <point x="159" y="353"/>
      <point x="102" y="326"/>
      <point x="79" y="304" type="qcurve"/>
      <point x="42" y="367" type="line"/>
      <point x="70" y="396"/>
      <point x="164" y="427"/>
      <point x="212" y="427" type="qcurve"/>
      <point x="275" y="427"/>
      <point x="353" y="370"/>
      <point x="353" y="327" type="qcurve"/>
      <point x="353" y="285"/>
      <point x="293" y="231"/>
      <point x="241" y="222" type="qcurve"/>
      <point x="280" y="216"/>
      <point x="321" y="166"/>
      <point x="321" y="133" type="qcurve"/>
      <point x="321" y="97"/>
      <point x="285" y="45"/>
      <point x="228" y="11"/>
      <point x="156" y="-5"/>
    </contour>
  </outline>
</glyph>
<glyph name="two.denominator" format="1">
  <advance width="407"/>
  <outline>
    <contour>
      <point x="-33" y="0" type="line"/>
      <point x="-24" y="41"/>
      <point x="1" y="102"/>
      <point x="40" y="148"/>
      <point x="95" y="183"/>
      <point x="134" y="198" type="qcurve"/>
      <point x="160" y="208"/>
      <point x="212" y="227"/>
      <point x="254" y="250"/>
      <point x="280" y="281"/>
      <point x="280" y="304" type="qcurve"/>
      <point x="280" y="326"/>
      <point x="244" y="349"/>
      <point x="211" y="349" type="qcurve"/>
      <point x="169" y="349"/>
      <point x="104" y="316"/>
      <point x="84" y="299" type="qcurve"/>
      <point x="46" y="357" type="line"/>
      <point x="56" y="367"/>
      <point x="92" y="391"/>
      <point x="141" y="412"/>
      <point x="203" y="426"/>
      <point x="239" y="426" type="qcurve"/>
      <point x="305" y="426"/>
      <point x="372" y="370"/>
      <point x="372" y="321" type="qcurve"/>
      <point x="372" y="286"/>
      <point x="348" y="234"/>
      <point x="306" y="197"/>
      <point x="249" y="170"/>
      <point x="216" y="160" type="qcurve"/>
      <point x="166" y="144"/>
      <point x="118" y="101"/>
      <point x="113" y="78" type="qcurve"/>
      <point x="323" y="78" type="line"/>
      <point x="306" y="0" type="line"/>
    </contour>
  </outline>
</glyph>
<glyph name="zero.numerator" format="1">
  <advance width="471"/>
  <outline>
    <contour>
      <point x="237" y="303" type="qcurve"/>
      <point x="194" y="303"/>
      <point x="132" y="335"/>
      <point x="92" y="385"/>
      <point x="73" y="448"/>
      <point x="73" y="480" type="qcurve"/>
      <point x="73" y="523"/>
      <point x="112" y="612"/>
      <point x="181" y="684"/>
      <point x="274" y="730"/>
      <point x="327" y="730" type="qcurve"/>
      <point x="370" y="730"/>
      <point x="431" y="697"/>
      <point x="470" y="646"/>
      <point x="489" y="583"/>
      <point x="489" y="552" type="qcurve"/>
      <point x="489" y="509"/>
      <point x="450" y="421"/>
      <point x="382" y="349"/>
      <point x="290" y="303"/>
    </contour>
    <contour>
      <point x="156" y="490" type="qcurve"/>
      <point x="156" y="470"/>
      <point x="167" y="432"/>
      <point x="191" y="402"/>
      <point x="227" y="383"/>
      <point x="253" y="383" type="qcurve"/>
      <point x="289" y="383"/>
      <point x="347" y="415"/>
      <point x="386" y="462"/>
      <point x="407" y="518"/>
      <point x="407" y="542" type="qcurve"/>
      <point x="407" y="562"/>
      <point x="396" y="601"/>
      <point x="372" y="632"/>
      <point x="335" y="651"/>
      <point x="310" y="651" type="qcurve"/>
      <point x="274" y="651"/>
      <point x="216" y="619"/>
      <point x="177" y="571"/>
      <point x="156" y="514"/>
    </contour>
  </outline>
</glyph>
